<?xml version="1.0" encoding="utf-8"?>
<!-- Generator: Adobe Illustrator 21.0.2, SVG Export Plug-In . SVG Version: 6.00 Build 0)  -->
<svg version="1.1" id="Capa_1" xmlns="http://www.w3.org/2000/svg" xmlns:xlink="http://www.w3.org/1999/xlink" x="0px" y="0px"
	 width="105px" height="101px" viewBox="0 0 105 101" enable-background="new 0 0 105 101" xml:space="preserve">
<g>
	<g>
		<path fill="#FE335E" d="M100.2,97.4H88.8c-1,0-1.8-0.8-1.8-1.8V5c0-1,0.8-1.8,1.8-1.8h11.4c1,0,1.8,0.8,1.8,1.8v90.6
			C102.1,96.6,101.2,97.4,100.2,97.4z M90.7,93.7h7.7V6.8h-7.7V93.7z M59.6,97.4H48.2c-1,0-1.8-0.8-1.8-1.8V46c0-1,0.8-1.8,1.8-1.8
			h11.4c1,0,1.8,0.8,1.8,1.8v49.5C61.5,96.6,60.7,97.4,59.6,97.4z M50.1,93.7h7.7V47.9h-7.7V93.7z M79.6,97.4H68.2
			c-1,0-1.8-0.8-1.8-1.8V25.1c0-1,0.8-1.8,1.8-1.8h11.4c1,0,1.8,0.8,1.8,1.8v70.5C81.4,96.6,80.6,97.4,79.6,97.4z M70,93.7h7.7V26.9
			H70V93.7z M39,97.4H27.6c-1,0-1.8-0.8-1.8-1.8V67.8c0-1,0.8-1.8,1.8-1.8H39c1,0,1.8,0.8,1.8,1.8v27.8C40.8,96.6,40,97.4,39,97.4z
			 M29.4,93.7h7.7V69.6h-7.7V93.7z M17.2,97.4H5.8c-1,0-1.8-0.8-1.8-1.8V78.7c0-1,0.8-1.8,1.8-1.8h11.4c1,0,1.8,0.8,1.8,1.8v16.9
			C19,96.6,18.2,97.4,17.2,97.4z M7.6,93.7h7.7V80.5H7.6V93.7z"/>
	</g>
</g>
</svg>
