<?xml version="1.0" encoding="utf-8"?>
<!-- Generator: Adobe Illustrator 21.0.2, SVG Export Plug-In . SVG Version: 6.00 Build 0)  -->
<svg version="1.1" id="Capa_1" xmlns="http://www.w3.org/2000/svg" xmlns:xlink="http://www.w3.org/1999/xlink" x="0px" y="0px"
	 width="86px" height="78px" viewBox="0 0 86 78" enable-background="new 0 0 86 78" xml:space="preserve">
<g>
	<circle fill="#FE335E" cx="38.9" cy="10.8" r="2.7"/>
	<circle fill="#FE335E" cx="38.9" cy="67.2" r="2.7"/>
	<circle fill="#FE335E" cx="10.8" cy="39.1" r="2.7"/>
	<path fill="#FE335E" d="M41.1,38.1C41.1,38.1,41.1,38.1,41.1,38.1c0-0.1,0-0.1,0-0.1c-1.5-4.4-3-8.8-4.4-13.2
		c-0.7-2-3.9-1.2-3.2,0.9c1.4,4.1,2.8,8.2,4.1,12.3c-5.6,4.3-11.2,8.6-16.7,12.9c-0.7,0.6-1.1,1.4-0.6,2.3c0.4,0.7,1.6,1.2,2.3,0.6
		c6-4.6,11.9-9.1,17.9-13.7c0,0,0.1-0.1,0.1-0.1C41,39.5,41.4,38.9,41.1,38.1z"/>
	<path fill="#FE335E" d="M82.2,33.5c-1.9,1.9-3.9,3.8-5.8,5.7c0,0,0-0.1,0-0.1c0-8.6-3-16.9-8.4-23.6C62.8,9,55.3,4.4,47.2,2.6
		C38.7,0.7,29.8,1.8,22,5.7c-7.4,3.7-13.5,10-17,17.4C1.3,31,0.5,40,2.6,48.5c2,8.1,7,15.4,13.6,20.5c6.8,5.2,15.3,7.9,23.8,7.6
		c9.2-0.2,18-4,24.7-10.3c3.5-3.3,6.3-7.3,8.3-11.6c0.4-0.8,0.2-1.8-0.6-2.3c-0.7-0.4-1.9-0.2-2.3,0.6c-3.6,7.9-10,14.3-18,17.6
		C43.9,74,34.8,74.1,26.7,71C19.2,68.2,12.9,62.6,9,55.7c-4-7.2-5.2-15.9-3.4-24c1.7-7.8,6.3-14.9,12.7-19.8
		c6.7-5,14.9-7.4,23.2-6.8C49.6,5.7,57.3,9.3,63,15c5.7,5.7,9.3,13.5,9.9,21.5c0.1,0.9,0.1,1.7,0.1,2.6c0,0.1,0,0.2,0,0.4
		c-2-2-4-4-6-6c-1.5-1.5-3.9,0.9-2.4,2.4c2.9,2.9,5.8,5.8,8.8,8.7c0.7,0.6,1.7,0.6,2.4,0c2.9-2.9,5.8-5.8,8.8-8.7
		C86.1,34.4,83.7,32,82.2,33.5z M74.9,40.8c-0.1,0.1-0.2,0.2-0.3,0.3c-0.1-0.1-0.2-0.2-0.3-0.3C74.5,40.8,74.7,40.8,74.9,40.8z"/>
</g>
</svg>
