<?xml version="1.0" encoding="utf-8"?>
<!-- Generator: Adobe Illustrator 21.0.2, SVG Export Plug-In . SVG Version: 6.00 Build 0)  -->
<svg version="1.1" id="Capa_1" xmlns="http://www.w3.org/2000/svg" xmlns:xlink="http://www.w3.org/1999/xlink" x="0px" y="0px"
	 width="86px" height="77px" viewBox="0 0 86 77" enable-background="new 0 0 86 77" xml:space="preserve">
<g>
	<path fill="#FE335E" d="M43,74.9c-0.3,0-0.6-0.1-0.8-0.2C0.7,48,1.9,28.2,2.1,26.3C2.2,13.3,12.7,2.8,25.6,2.8
		c6.4,0,12.8,3,17.4,8.1c4.6-5.1,11-8.1,17.4-8.1c12.9,0,23.5,10.5,23.5,23.4c0.2,2,1.4,21.7-40.1,48.4C43.6,74.8,43.3,74.9,43,74.9
		z M25.6,5.9c-11.3,0-20.5,9.2-20.5,20.5c0,0.1,0,0.2,0,0.2C5.1,26.8,3,45.5,43,71.5c40.3-26.2,37.9-44.7,37.8-44.9
		c0-0.1,0-0.2,0-0.2c0-11.3-9.2-20.5-20.5-20.5c-6,0-12.1,3.1-16.1,8.3c-0.6,0.7-1.8,0.7-2.4,0C37.7,9,31.7,5.9,25.6,5.9z
		 M83.9,26.4L83.9,26.4L83.9,26.4z"/>
</g>
</svg>
