<?xml version="1.0" encoding="utf-8"?>
<!-- Generator: Adobe Illustrator 21.0.2, SVG Export Plug-In . SVG Version: 6.00 Build 0)  -->
<svg version="1.1" id="Capa_1" xmlns="http://www.w3.org/2000/svg" xmlns:xlink="http://www.w3.org/1999/xlink" x="0px" y="0px"
	 width="75.1px" height="6.9px" viewBox="0 0 75.1 6.9" enable-background="new 0 0 75.1 6.9" xml:space="preserve">
<g>
	<g id="XMLID_407_">
		<path fill="#FFFFFF" d="M6.5,6.7c-0.2,0-0.3-0.1-0.3-1.1C5.9,6,5.7,6.1,5.5,6.3C5,6.6,4.3,6.9,3.7,6.9C3,6.9,2.2,6.6,1.8,6.2
			C1.3,5.7,1.1,5,1.1,4.1c0-0.1,0-0.2,0-0.4V3.5v-2c0-0.9-1.1-0.9-1.1-1c0-0.2,1.3-0.2,2.1-0.4c0.2,0,0.2,0.1,0.2,0.6l0,3V4
			c0,1.3,0.8,2.2,2,2.2c1.1,0,2-0.8,1.9-1.7V4.5v-3c0-1.1-1.1-0.9-1.1-1c0-0.2,1.6-0.3,2.1-0.4c0.1,0,0.2,0,0.2,0.4v1
			c0.6-0.8,1.4-1.2,2.4-1.2c1,0,1.6,0.4,2.1,1.3c0.7-0.9,1.5-1.3,2.5-1.3c1.6,0,2.5,1.1,2.5,2.9v2c0,0.4,0.1,0.8,0.2,0.9
			c0.1,0.2,0.6,0.4,1,0.4c0.2,0,0.2,0.1,0.2,0.2c0,0.1-0.1,0.2-0.2,0.2c-0.1,0-2.8,0-2.9,0c-0.1,0-0.2-0.1-0.2-0.2
			c0-0.1,0.1-0.1,0.1-0.2c0.6-0.2,0.6-0.3,0.6-1.2V3.4c0-0.8-0.1-1.3-0.5-1.7c-0.4-0.5-0.8-0.7-1.4-0.7c-0.9,0-1.7,0.6-1.7,1.2
			c0,0.1,0,0.1,0,0.2c0.1,0.3,0.1,0.3,0.1,0.6v2.3c0,0.9,0.2,1.2,1.1,1.2c0.2,0,0.3,0.1,0.3,0.2c0,0.1-0.1,0.2-0.2,0.2
			c0,0-2.9,0-2.9,0c-0.1,0-0.2,0-0.2-0.2c0-0.1,0.1-0.1,0.2-0.1C11,6.2,11,6.1,11,5.2V2.9c0-1.2-0.7-2-1.8-2c-1,0-1.7,0.6-1.7,1.4
			v2.9c0,0.2,0,0.4,0,0.6c0.1,0.5,1.1,0.5,1.1,0.5c0,0.1,0,0.1-0.1,0.1C8.5,6.5,6.5,6.7,6.5,6.7z"/>
	</g>
	<g id="XMLID_403_">
		<path fill="#FFFFFF" d="M62.8,0.9l1.4,2.7c0.4,0,0.8,0,1.1,0.1l-2-3.5h-1.2l-1.8,3.3c0.3,0,0.7,0,1,0L62.8,0.9z"/>
	</g>
	<g id="XMLID_399_">
		<path fill="#FFFFFF" d="M70.2,0.2h-1.1V4c0.4,0,0.7,0.1,1.1,0.1V0.2z"/>
	</g>
	<g id="XMLID_395_">
		<path fill="#FFFFFF" d="M65.8,6.7H67l-1.7-3c-0.4,0-0.8,0-1.1-0.1L65.8,6.7z"/>
	</g>
	<g id="XMLID_391_">
		<path fill="#FFFFFF" d="M59.8,6.7l1.7-3.2c-0.3,0-0.7,0-1,0l-1.8,3.2H59.8z"/>
	</g>
	<g id="XMLID_387_">
		<path fill="#FFFFFF" d="M75.1,6.7V5.8h-4.9V4.1C69.8,4,69.5,4,69.1,4v2.7H75.1z"/>
	</g>
	<g id="XMLID_383_">
		<polygon fill="#FFFFFF" points="25.1,0.2 23.1,4.1 23.1,4.1 		"/>
	</g>
	<g id="XMLID_379_">
		<path fill="#FFFFFF" d="M19.5,0.2h-1.2l2.3,4.1c0.3,0,0.7-0.1,1.1-0.1L19.5,0.2z"/>
	</g>
	<g id="XMLID_375_">
		<path fill="#FFFFFF" d="M29.3,0.2h-1.1v3.5c0.4,0,0.7,0,1.1-0.1V0.2z"/>
	</g>
	<g id="XMLID_371_">
		<path fill="#FFFFFF" d="M44.8,1.1h3V0.2h-7v0.9h3v2.1c0.4,0,0.7,0,1.1,0V1.1z"/>
	</g>
	<g id="XMLID_367_">
		<path fill="#FFFFFF" d="M56.6,0.2h-1.1v3.1c0.4,0,0.7,0,1.1,0V0.2z"/>
	</g>
	<g id="XMLID_363_">
		<path fill="#FFFFFF" d="M50.7,0.2h-1.1v3c0.4,0,0.7,0,1.1,0V0.2z"/>
	</g>
	<g id="XMLID_300_">
		<path fill="#FFFFFF" d="M35.7,3.3L35.7,3.3c0.2,0,0.5,0,0.7,0H35.7z"/>
	</g>
	<g id="XMLID_298_">
		<path fill="#FFFFFF" d="M33.8,1h3.7c0.3,0,0.4,0,0.5,0.1c0.1,0.1,0.2,0.3,0.2,0.5v0.9c0,0.3-0.1,0.4-0.2,0.5c0,0-0.1,0.1-0.2,0.1
			c0.5,0,0.9,0,1.4,0c0-0.1,0-0.2,0-0.3V1.4c0-0.4-0.1-0.8-0.3-1c-0.2-0.2-0.6-0.3-1-0.3h-5.2v3.3c0.4,0,0.7,0,1.1,0V1z"/>
	</g>
	<g id="XMLID_296_">
		<polygon fill="#FFFFFF" points="24.2,4 26.1,0.2 24.2,4 		"/>
	</g>
	<g id="XMLID_294_">
		<path fill="#FFFFFF" d="M24.2,4l2-3.8h-1.1l-2,3.9C23.4,4.1,23.8,4,24.2,4z"/>
	</g>
	<g id="XMLID_292_" opacity="0.3">
		<path fill="#FFFFFF" d="M37.5,3.3c0.1,0,0.3,0,0.4,0c-0.5,0-1,0-1.5,0H37.5z"/>
	</g>
	<g id="XMLID_290_">
		<path fill="#FFFFFF" d="M21.8,6.7l0.5-1.1l0.8-1.5l0,0l-0.8,1.5l-0.7-1.4c-0.4,0-0.7,0.1-1.1,0.1L21.8,6.7L21.8,6.7z"/>
	</g>
	<g id="XMLID_288_">
		<path fill="#FFFFFF" d="M29.3,6.7V3.6c-0.4,0-0.7,0-1.1,0.1v3H29.3z"/>
	</g>
	<g id="XMLID_286_">
		<path fill="#FFFFFF" d="M44.8,6.7V3.2c-0.4,0-0.7,0-1.1,0v3.5H44.8z"/>
	</g>
	<g id="XMLID_284_">
		<path fill="#FFFFFF" d="M50,6.4c0.2,0.2,0.6,0.3,1.2,0.3h3.9c0.6,0,1-0.1,1.2-0.3c0.2-0.2,0.3-0.6,0.3-1.2V3.3c-0.4,0-0.7,0-1.1,0
			v2.5h-4.7V3.2c-0.4,0-0.7,0-1.1,0v2C49.7,5.8,49.8,6.2,50,6.4z"/>
	</g>
	<g id="XMLID_282_">
		<path fill="#FFFFFF" d="M33.8,6.7V3.4c-0.4,0-0.7,0-1.1,0v3.2H33.8z"/>
	</g>
	<g id="XMLID_280_">
		<path fill="#FFFFFF" d="M37.5,3.3h-1.1c-0.2,0-0.5,0-0.7,0v0.8l2.6,2.5H40l-3-2.5h1c0.5,0,0.8-0.1,1-0.3c0.2-0.1,0.3-0.4,0.3-0.6
			c-0.5,0-0.9,0-1.4,0C37.8,3.3,37.7,3.3,37.5,3.3z"/>
	</g>
	<g id="XMLID_278_">
		<path fill="#FFFFFF" d="M24.2,4c-0.4,0-0.7,0.1-1.1,0.1l-0.8,1.5l-0.5,1.1h0.9L24.2,4z"/>
	</g>
	<g id="XMLID_276_">
		<path fill="#FFFFFF" d="M58.4,4.3L58.1,5c3.7-0.1,7.8-0.7,8.8-2.2c-1.8,0.9-4.6,1.5-7.4,1.5c-0.1,0-0.8,0-0.8,0L58.4,4.3z"/>
	</g>
</g>
</svg>
