<?xml version="1.0" encoding="utf-8"?>
<!-- Generator: Adobe Illustrator 21.0.2, SVG Export Plug-In . SVG Version: 6.00 Build 0)  -->
<svg version="1.1" id="Capa_1" xmlns="http://www.w3.org/2000/svg" xmlns:xlink="http://www.w3.org/1999/xlink" x="0px" y="0px"
	 width="27.1px" height="27px" viewBox="0 0 27.1 27" enable-background="new 0 0 27.1 27" xml:space="preserve">
<g id="XMLID_222_" opacity="0.8">
	<path id="XMLID_223_" fill="#FFFFFF" d="M13.6,0C21,0,27.1,6.1,27.1,13.6c0,6.9-5.2,12.6-11.9,13.4V16.9h4.7l0.4-3.4h-5.1v-1.7
		c0-0.9,0.8-1.7,1.7-1.7h3.4V6.8h-3.4c-2.8,0-5.1,2.3-5.1,5.1v1.7H9.3v3.4h2.5V27C5.2,26.2,0,20.5,0,13.6C0,6.1,6.1,0,13.6,0L13.6,0
		z M13.6,0"/>
</g>
</svg>
