<?xml version="1.0" encoding="utf-8"?>
<!-- Generator: Adobe Illustrator 17.0.0, SVG Export Plug-In . SVG Version: 6.00 Build 0)  -->
<!DOCTYPE svg PUBLIC "-//W3C//DTD SVG 1.1//EN" "http://www.w3.org/Graphics/SVG/1.1/DTD/svg11.dtd">
<svg version="1.1" id="Layer_1" xmlns="http://www.w3.org/2000/svg" xmlns:xlink="http://www.w3.org/1999/xlink" x="0px" y="0px"
	 width="128.25px" height="15.25px" viewBox="0 0 128.25 15.25" enable-background="new 0 0 128.25 15.25" xml:space="preserve">
<g>
	<g id="XMLID_1243_">
		<path fill="#FFFFFF" d="M12.319,13.307c-0.39-0.018-0.421-0.089-0.48-1.903c-0.541,0.684-0.811,0.952-1.202,1.249
			c-0.751,0.535-1.953,0.922-2.944,0.922c-1.171,0-2.493-0.505-3.184-1.189c-0.781-0.743-1.202-1.992-1.202-3.448
			c0-0.149,0-0.357,0.03-0.595V7.867V4.489c0-1.58-1.757-1.434-1.802-1.634C1.476,2.594,3.652,2.451,5.02,2.201
			C5.315,2.147,5.38,2.29,5.38,3.122L5.32,8.164v0.654c0,2.199,1.322,3.716,3.274,3.716c1.863,0,3.394-1.338,3.245-2.884V9.561
			V4.579c0.023-1.891-1.833-1.516-1.833-1.724c0-0.327,2.671-0.583,3.541-0.733c0.172-0.03,0.386,0.024,0.386,0.678v1.601
			c1.081-1.308,2.403-1.962,3.935-1.962c1.652,0,2.643,0.624,3.574,2.17c1.141-1.486,2.464-2.17,4.145-2.17
			c2.584,0,4.146,1.784,4.146,4.756v3.258c0,0.654,0.121,1.308,0.301,1.546c0.24,0.327,1.022,0.684,1.592,0.743
			c0.271,0.03,0.36,0.119,0.36,0.297c0,0.178-0.12,0.267-0.33,0.267c-0.12,0-4.744-0.007-4.834-0.007
			c-0.21,0-0.393-0.104-0.393-0.29c0-0.119,0.09-0.209,0.24-0.268c1.021-0.386,1.081-0.476,1.081-2.051V7.7
			c0-1.397-0.21-2.17-0.781-2.913c-0.601-0.803-1.412-1.219-2.343-1.219c-1.442,0-2.914,0.981-2.914,1.933
			c0,0.089,0,0.208,0.03,0.357c0.09,0.476,0.09,0.535,0.09,0.981v3.793c0,1.486,0.39,1.962,1.802,2.081
			c0.331,0.03,0.481,0.149,0.481,0.327c0,0.178-0.15,0.267-0.39,0.267c0,0-4.766-0.009-4.856-0.009c-0.18,0-0.373-0.063-0.371-0.288
			c0.001-0.089,0.09-0.179,0.27-0.238c1.021-0.357,1.051-0.416,1.051-1.932V6.897c0-2.05-1.141-3.299-3.004-3.299
			c-1.712,0-2.883,0.951-2.883,2.407v4.804c0,0.362,0.023,0.712,0.02,1.029c0.144,0.831,1.906,0.762,1.911,0.873
			c0.005,0.135-0.046,0.217-0.164,0.232C15.7,12.943,12.333,13.308,12.319,13.307z"/>
	</g>
	<g id="XMLID_1241_">
		<path fill="#FFFFFF" d="M106.185,3.669l2.378,4.529c0.638,0.038,1.273,0.076,1.904,0.118l-3.273-5.886h-1.933l-2.973,5.441
			c0.549,0.025,1.097,0.05,1.642,0.076L106.185,3.669z"/>
	</g>
	<g id="XMLID_1239_">
		<path fill="#FFFFFF" d="M118.542,2.43h-1.807v6.331c0.607,0.05,1.208,0.098,1.807,0.149V2.43z"/>
	</g>
	<g id="XMLID_1237_">
		<path fill="#FFFFFF" d="M111.228,13.273h1.996l-2.758-4.957c-0.631-0.042-1.265-0.08-1.904-0.118L111.228,13.273z"/>
	</g>
	<g id="XMLID_1235_">
		<path fill="#FFFFFF" d="M101.12,13.273l2.809-5.327c-0.545-0.026-1.093-0.051-1.642-0.076l-2.953,5.402H101.12z"/>
	</g>
	<g id="XMLID_1233_">
		<path fill="#FFFFFF" d="M126.758,13.273v-1.512h-8.216V8.91c-0.599-0.05-1.201-0.099-1.807-0.149v4.512H126.758z"/>
	</g>
	<g id="XMLID_1231_">
		<polygon fill="#FFFFFF" points="43.325,2.43 40.033,8.925 40.033,8.925 		"/>
	</g>
	<g id="XMLID_1229_">
		<path fill="#FFFFFF" d="M33.952,2.43h-1.954l3.76,6.881c0.581-0.056,1.166-0.112,1.755-0.165L33.952,2.43z"/>
	</g>
	<g id="XMLID_1227_">
		<path fill="#FFFFFF" d="M50.429,2.43h-1.808v5.863c0.6-0.038,1.202-0.074,1.808-0.109V2.43z"/>
	</g>
	<g id="XMLID_1225_">
		<path fill="#FFFFFF" d="M76.279,3.9h4.981V2.43H69.511V3.9h4.96v3.483c0.601-0.006,1.203-0.009,1.807-0.013V3.9z"/>
	</g>
	<g id="XMLID_1223_">
		<path fill="#FFFFFF" d="M95.822,2.43h-1.806v5.136c0.604,0.017,1.206,0.035,1.806,0.055V2.43z"/>
	</g>
	<g id="XMLID_1221_">
		<path fill="#FFFFFF" d="M86.114,2.43h-1.808v4.954c0.604,0.005,1.207,0.011,1.808,0.02V2.43z"/>
	</g>
	<g id="XMLID_1219_">
		<path fill="#FFFFFF" d="M61.058,7.642v0.042c0.403-0.014,0.807-0.03,1.213-0.042H61.058z"/>
	</g>
	<g id="XMLID_1217_">
		<path fill="#FFFFFF" d="M57.868,3.838h6.22c0.435,0,0.739,0.08,0.914,0.241c0.175,0.161,0.263,0.453,0.263,0.872v1.577
			c0,0.434-0.087,0.729-0.263,0.883c-0.078,0.068-0.185,0.119-0.315,0.156c0.777-0.021,1.558-0.041,2.341-0.06
			c0.028-0.171,0.044-0.357,0.044-0.558V4.532c0-0.744-0.182-1.279-0.545-1.608c-0.364-0.33-0.943-0.493-1.741-0.493h-8.726v5.459
			c0.601-0.029,1.203-0.055,1.808-0.081V3.838z"/>
	</g>
	<g id="XMLID_1215_">
		<polygon fill="#FFFFFF" points="41.789,8.781 45.112,2.43 41.789,8.781 		"/>
	</g>
	<g id="XMLID_1213_">
		<path fill="#FFFFFF" d="M41.789,8.781l3.323-6.351h-1.787l-3.292,6.495C40.615,8.876,41.199,8.828,41.789,8.781z"/>
	</g>
	<g id="XMLID_1211_" opacity="0.3">
		<path fill="#FFFFFF" d="M64.089,7.642c0.241,0,0.438-0.026,0.6-0.075c-0.809,0.024-1.615,0.049-2.417,0.075H64.089z"/>
	</g>
	<g id="XMLID_1209_">
		<path fill="#FFFFFF" d="M37.924,13.273l0.82-1.805l1.289-2.543l0,0l-1.289,2.542l-1.231-2.322
			c-0.589,0.054-1.174,0.109-1.755,0.165L37.924,13.273L37.924,13.273z"/>
	</g>
	<g id="XMLID_1207_">
		<path fill="#FFFFFF" d="M50.429,13.273V8.184c-0.605,0.035-1.208,0.071-1.808,0.109v4.98H50.429z"/>
	</g>
	<g id="XMLID_1205_">
		<path fill="#FFFFFF" d="M76.279,13.273V7.37c-0.604,0.005-1.206,0.007-1.807,0.013v5.889H76.279z"/>
	</g>
	<g id="XMLID_1203_">
		<path fill="#FFFFFF" d="M84.843,12.739c0.358,0.357,1.028,0.535,2.01,0.535h6.443c0.983,0,1.649-0.178,2-0.535
			c0.35-0.358,0.526-1.035,0.526-2.028v-3.09c-0.6-0.02-1.202-0.037-1.806-0.055v4.195h-7.902V7.404
			c-0.601-0.008-1.204-0.014-1.808-0.02v3.326C84.306,11.704,84.485,12.381,84.843,12.739z"/>
	</g>
	<g id="XMLID_1201_">
		<path fill="#FFFFFF" d="M57.868,13.273V7.808c-0.605,0.026-1.207,0.052-1.808,0.081v5.384H57.868z"/>
	</g>
	<g id="XMLID_1199_">
		<path fill="#FFFFFF" d="M64.089,7.642h-1.818c-0.406,0.012-0.809,0.028-1.213,0.042v1.369l4.405,4.219h2.69l-4.96-4.224h1.595
			c0.797,0,1.377-0.164,1.74-0.493c0.265-0.239,0.43-0.592,0.502-1.049c-0.783,0.019-1.564,0.039-2.341,0.06
			C64.527,7.616,64.33,7.642,64.089,7.642z"/>
	</g>
	<g id="XMLID_1197_">
		<path fill="#FFFFFF" d="M41.789,8.78c-0.59,0.047-1.174,0.095-1.756,0.144l-1.289,2.543l-0.82,1.806h1.513L41.789,8.78z"/>
	</g>
	<g id="XMLID_1195_">
		<path fill="#FFFFFF" d="M98.799,9.339l-0.48,1.103c6.187-0.114,13.044-1.115,14.672-3.719c-2.945,1.501-7.6,2.435-12.305,2.569
			c-0.146,0.005-1.296,0.037-1.296,0.037L98.799,9.339z"/>
	</g>
</g>
<g>
</g>
<g>
</g>
<g>
</g>
<g>
</g>
<g>
</g>
<g>
</g>
<g>
</g>
<g>
</g>
<g>
</g>
<g>
</g>
<g>
</g>
<g>
</g>
<g>
</g>
<g>
</g>
<g>
</g>
</svg>
