<?xml version="1.0" encoding="utf-8"?>
<!-- Generator: Adobe Illustrator 17.0.0, SVG Export Plug-In . SVG Version: 6.00 Build 0)  -->
<!DOCTYPE svg PUBLIC "-//W3C//DTD SVG 1.1//EN" "http://www.w3.org/Graphics/SVG/1.1/DTD/svg11.dtd">
<svg version="1.1" id="Layer_1" xmlns="http://www.w3.org/2000/svg" xmlns:xlink="http://www.w3.org/1999/xlink" x="0px" y="0px"
	 width="70.196px" height="52.067px" viewBox="0 0 70.196 52.067" enable-background="new 0 0 70.196 52.067" xml:space="preserve">
<g>
	<g>
		<g>
			<g>
				<path fill="#FFFFFF" d="M2.351,19.564h1.355l1.738,4.817l0.644,1.834h0.055l0.629-1.834l1.725-4.817h1.342v8.979H8.757v-4.941
					c0-0.794,0.096-1.861,0.15-2.655H8.853l-0.712,1.999l-1.725,4.694H5.759l-1.725-4.694l-0.712-1.999H3.268
					c0.055,0.794,0.138,1.861,0.138,2.655v4.941H2.351V19.564z"/>
				<path fill="#FFFFFF" d="M11.714,24.012c0-2.874,1.588-4.612,3.846-4.612c2.245,0,3.833,1.752,3.833,4.612
					c0,2.888-1.588,4.694-3.833,4.694C13.302,28.707,11.714,26.9,11.714,24.012z M18.215,24.012c0-2.231-1.054-3.613-2.655-3.613
					c-1.615,0-2.669,1.382-2.669,3.613c0,2.244,1.054,3.695,2.669,3.695C17.162,27.708,18.215,26.257,18.215,24.012z"/>
				<path fill="#FFFFFF" d="M21.254,19.564h1.355l1.738,4.817l0.644,1.834h0.055l0.629-1.834l1.725-4.817h1.342v8.979h-1.081v-4.941
					c0-0.794,0.096-1.861,0.15-2.655h-0.055l-0.712,1.999l-1.725,4.694h-0.657l-1.725-4.694l-0.712-1.999h-0.055
					c0.055,0.794,0.138,1.861,0.138,2.655v4.941h-1.055V19.564z"/>
				<path fill="#FFFFFF" d="M31.137,19.564h5.173v0.958h-4.023v2.819h3.394v0.972h-3.394v3.258h4.16v0.972h-5.31V19.564z"/>
				<path fill="#FFFFFF" d="M38.282,19.564h1.178l3.257,5.639l0.973,1.861h0.055c-0.055-0.903-0.151-1.916-0.151-2.86v-4.64h1.082
					v8.979h-1.178l-3.243-5.652l-0.972-1.849h-0.056c0.056,0.903,0.138,1.862,0.138,2.807v4.694h-1.082V19.564z"/>
				<path fill="#FFFFFF" d="M48.946,20.522h-2.725v-0.958h6.584v0.958h-2.724v8.021h-1.136V20.522z"/>
				<path fill="#FFFFFF" d="M53.49,24.012c0-2.874,1.588-4.612,3.846-4.612c2.245,0,3.833,1.752,3.833,4.612
					c0,2.888-1.588,4.694-3.833,4.694C55.078,28.707,53.49,26.9,53.49,24.012z M59.991,24.012c0-2.231-1.054-3.613-2.655-3.613
					c-1.615,0-2.669,1.382-2.669,3.613c0,2.244,1.054,3.695,2.669,3.695C58.937,27.708,59.991,26.257,59.991,24.012z"/>
				<path fill="#FFFFFF" d="M63.071,26.586c0.644,0.671,1.533,1.122,2.478,1.122c1.178,0,1.875-0.589,1.875-1.465
					c0-0.917-0.656-1.204-1.505-1.587l-1.287-0.562c-0.835-0.355-1.82-0.999-1.82-2.313c0-1.368,1.204-2.381,2.833-2.381
					c1.068,0,2.013,0.451,2.642,1.108l-0.602,0.739c-0.548-0.521-1.219-0.849-2.04-0.849c-1.013,0-1.684,0.506-1.684,1.313
					c0,0.862,0.794,1.191,1.492,1.492l1.287,0.548c1.04,0.451,1.848,1.067,1.848,2.395c0,1.424-1.178,2.56-3.066,2.56
					c-1.259,0-2.354-0.52-3.134-1.327L63.071,26.586z"/>
			</g>
		</g>
	</g>
	<g opacity="0.7">
		<defs>
			<circle id="SVGID_1_" opacity="0.7" cx="5.023" cy="10.305" r="3.306"/>
		</defs>
		<use xlink:href="#SVGID_1_"  overflow="visible" fill="#FFFFFF"/>
		<clipPath id="SVGID_2_">
			<use xlink:href="#SVGID_1_"  overflow="visible"/>
		</clipPath>
	</g>
	<g opacity="0.7">
		<defs>
			<circle id="SVGID_3_" opacity="0.7" cx="20.128" cy="6" r="3.306"/>
		</defs>
		<use xlink:href="#SVGID_3_"  overflow="visible" fill="#FFFFFF"/>
		<clipPath id="SVGID_4_">
			<use xlink:href="#SVGID_3_"  overflow="visible"/>
		</clipPath>
	</g>
	<g opacity="0.7">
		<defs>
			<circle id="SVGID_5_" opacity="0.7" cx="34.496" cy="12.612" r="3.306"/>
		</defs>
		<use xlink:href="#SVGID_5_"  overflow="visible" fill="#FFFFFF"/>
		<clipPath id="SVGID_6_">
			<use xlink:href="#SVGID_5_"  overflow="visible"/>
		</clipPath>
	</g>
	<g opacity="0.7">
		<defs>
			<circle id="SVGID_7_" opacity="0.7" cx="49.859" cy="8.279" r="3.306"/>
		</defs>
		<use xlink:href="#SVGID_7_"  overflow="visible" fill="#FFFFFF"/>
		<clipPath id="SVGID_8_">
			<use xlink:href="#SVGID_7_"  overflow="visible"/>
		</clipPath>
	</g>
	<g opacity="0.7">
		<defs>
			<circle id="SVGID_9_" opacity="0.7" cx="64.908" cy="4.972" r="3.306"/>
		</defs>
		<use xlink:href="#SVGID_9_"  overflow="visible" fill="#FFFFFF"/>
		<clipPath id="SVGID_10_">
			<use xlink:href="#SVGID_9_"  overflow="visible"/>
		</clipPath>
	</g>
	<g>
		<g>
			<g>
				<path fill="#FFFFFF" d="M2.028,35.077h6.69v0.744H2.882v4.627H7.79v0.744H2.882v5.39h6.021v0.743H2.028V35.077z"/>
				<path fill="#FFFFFF" d="M11.448,35.077h0.892l5.148,8.643l1.394,2.435h0.075c-0.057-1.189-0.112-2.379-0.112-3.568v-7.509h0.8
					v12.248h-0.893l-5.147-8.643l-1.395-2.435h-0.074c0.056,1.171,0.111,2.286,0.111,3.476v7.602h-0.799V35.077z"/>
				<path fill="#FFFFFF" d="M26.832,35.077h0.854v11.505h5.632v0.743h-6.486V35.077z"/>
				<path fill="#FFFFFF" d="M35.862,34.148H35.1l1.728-1.97h1.06L35.862,34.148z M35.379,35.077h0.854v12.248h-0.854V35.077z"/>
				<path fill="#FFFFFF" d="M39.708,35.077H40.6l5.148,8.643l1.394,2.435h0.075c-0.057-1.189-0.112-2.379-0.112-3.568v-7.509h0.8
					v12.248h-0.893l-5.147-8.643l-1.395-2.435h-0.074c0.056,1.171,0.111,2.286,0.111,3.476v7.602h-0.799V35.077z"/>
				<path fill="#FFFFFF" d="M51.395,35.077h6.69v0.744H52.25v4.627h4.907v0.744H52.25v5.39h6.022v0.743h-6.877V35.077z"/>
				<path fill="#FFFFFF" d="M66.298,43.125h-4.851l-1.431,4.2h-0.874l4.33-12.248h0.855l4.312,12.248h-0.91L66.298,43.125z
					 M66.057,42.4l-0.781-2.286c-0.482-1.45-0.929-2.732-1.356-4.237h-0.074c-0.428,1.505-0.854,2.787-1.356,4.237L61.707,42.4
					H66.057z"/>
			</g>
		</g>
	</g>
</g>
<g>
</g>
<g>
</g>
<g>
</g>
<g>
</g>
<g>
</g>
<g>
</g>
<g>
</g>
<g>
</g>
<g>
</g>
<g>
</g>
<g>
</g>
<g>
</g>
<g>
</g>
<g>
</g>
<g>
</g>
</svg>
