<?xml version="1.0" encoding="utf-8"?>
<!-- Generator: Adobe Illustrator 21.0.2, SVG Export Plug-In . SVG Version: 6.00 Build 0)  -->
<svg version="1.1" id="Capa_1" xmlns="http://www.w3.org/2000/svg" xmlns:xlink="http://www.w3.org/1999/xlink" x="0px" y="0px"
	 width="26.9px" height="26.9px" viewBox="0 0 26.9 26.9" enable-background="new 0 0 26.9 26.9" xml:space="preserve">
<g id="XMLID_38_" opacity="0.8">
	<path id="XMLID_159_" fill="#FFFFFF" d="M13.5,0C6,0,0,6,0,13.5c0,7.4,6,13.5,13.5,13.5c7.4,0,13.5-6,13.5-13.5
		C26.9,6,20.9,0,13.5,0L13.5,0z M19.5,10.4c0,0.1,0,0.3,0,0.4c0,4.1-3.1,8.8-8.8,8.8c-1.8,0-3.4-0.5-4.8-1.4c0.2,0,0.5,0,0.7,0
		c1.5,0,2.8-0.5,3.9-1.3c-1.4,0-2.5-0.9-2.9-2.2c0.2,0,0.4,0.1,0.6,0.1c0.3,0,0.6,0,0.8-0.1c-1.4-0.3-2.5-1.5-2.5-3c0,0,0,0,0,0
		C6.9,11.9,7.4,12,7.9,12c-0.8-0.6-1.4-1.5-1.4-2.6c0-0.6,0.2-1.1,0.4-1.6c1.5,1.9,3.8,3.1,6.4,3.2c-0.1-0.2-0.1-0.5-0.1-0.7
		c0-1.7,1.4-3.1,3.1-3.1c0.9,0,1.7,0.4,2.3,1c0.7-0.1,1.4-0.4,2-0.8c-0.2,0.7-0.7,1.3-1.4,1.7C19.9,9.2,20.5,9,21,8.8
		C20.6,9.4,20.1,9.9,19.5,10.4L19.5,10.4z M19.5,10.4"/>
</g>
</svg>
