<?xml version="1.0" encoding="utf-8"?>
<!-- Generator: Adobe Illustrator 21.0.2, SVG Export Plug-In . SVG Version: 6.00 Build 0)  -->
<svg version="1.1" id="Capa_1" xmlns="http://www.w3.org/2000/svg" xmlns:xlink="http://www.w3.org/1999/xlink" x="0px" y="0px"
	 width="403.2px" height="63.9px" viewBox="0 0 403.2 63.9" enable-background="new 0 0 403.2 63.9" xml:space="preserve">
<g>
	<g>
		<g id="XMLID_456_">
			<path id="XMLID_459_" fill="#1E174F" d="M129.8,42.8c-0.9-1.9-1.4-4.5,0.6-7.4c1.6-2.3,3.3-4.1,2-8.4c2.5,2.9,3.3,6.5,2.3,9.1
				C133.6,39.3,130.8,39.9,129.8,42.8z"/>
			<path id="XMLID_458_" fill="#1E174F" d="M123.1,43.6c-5.6-0.8-11.4-8-5.6-15.7c5.5-7.4,9.1-10.9,5.3-16.4
				c5.8,4.9,3.2,10.9-1.4,18C119.1,33.2,117.8,39.2,123.1,43.6z"/>
			<path id="XMLID_457_" fill="#1E174F" d="M106.9,46.7c0,0,2.3-0.4,8.3-2c3.1-0.8,6.7-0.2,8.2,1.2c1.3,1.3,1.8,3,1.9,3.2
				c0.1,0.4,0.3,1.3,0.3,1.3s0.5-1.4,0.7-1.7c0.1-0.2,0.8-0.2,1.3-1.5c0.4-1,0-2.4-1.8-3.6c-3.8-2.7-4.3-9.2-1-14.1
				c4.1-6.1,4.7-9.3,2.9-12.2c6.5,5.9,2.7,12,0.6,15.1c-1.8,2.7-2.5,5-1.9,7.6c0.1,0.6,0.2,1.4,0.7,2.3c0.5,0.7,1.2,2.7,2.4,2.3
				c1.9-0.7,3.8-0.3,7,0.4c5.4,1.2,7.5,1.5,7.5,1.5l4.1,5.6c0,0-10-1.9-13.5-2.4c-4-0.6-7.7,0.1-9.1,2.4c-1.3-2.3-5-2.9-8.8-2.4
				c-3.5,0.5-13.7,2.5-13.7,2.5L106.9,46.7z"/>
		</g>
		<g id="XMLID_410_">
			<g id="XMLID_435_">
				<path id="XMLID_455_" fill="#B0915F" d="M151.8,51.9v-0.3c0.6-0.1,1-0.2,1.3-0.5s0.5-0.7,0.7-1.3c0.1-0.4,0.2-1,0.4-1.9
					c0.1-0.8,0.3-1.8,0.4-3c0.1-1,0.2-1.9,0.3-2.6s0.1-1.2,0.1-1.4c0-0.6-0.2-1-0.5-1.3s-0.8-0.5-1.5-0.5v-0.3c0.3,0,0.5,0,0.8,0
					s0.7,0,1.3,0s1,0,1.3,0s0.5,0,0.7,0v0.3c-0.1,0.1-0.1,0.1-0.2,0.2c0,0.1-0.1,0.1-0.1,0.2c0,0.4,0.3,1.3,1,2.8
					c0,0.1,0,0.1,0.1,0.1l2.9,6.5l3.6-7.9c0,0,0,0,0-0.1c0.2-0.5,0.4-0.9,0.4-1.3c0-0.1,0-0.2,0-0.3c0-0.1-0.1-0.2-0.1-0.2v-0.3
					c0.2,0,0.5,0,0.8,0s0.7,0,1.3,0s1,0,1.4,0c0.3,0,0.6,0,0.9,0v0.3c-0.7,0-1.2,0.2-1.5,0.6s-0.5,0.9-0.5,1.7c0,0.1,0,0.2,0,0.5
					c0,0.2,0,0.5,0,0.8l0.4,6c0.1,1.2,0.3,1.9,0.5,2.2c0.3,0.3,0.8,0.5,1.6,0.6v0.3c-0.7,0-1.2,0-1.6,0c-0.4,0-0.9,0-1.3,0
					c-0.7,0-1.7,0-3.2,0h-0.2v-0.3c0.9-0.1,1.6-0.3,1.9-0.6c0.3-0.3,0.5-0.8,0.5-1.5c0-0.1,0-0.3,0-0.3c0-0.1,0-0.1,0-0.2l-0.4-7.8
					l-2.9,6.3c-0.2,0.5-0.5,1.2-0.8,1.9c-0.3,0.7-0.7,1.6-1.1,2.7H160c-0.2-0.5-0.5-1.1-0.7-1.7c-0.3-0.6-0.4-0.9-0.4-1l-3.5-7.8
					l-0.3,2.5c-0.1,1.1-0.2,2.1-0.3,3.1c-0.1,0.9-0.1,1.7-0.1,2.2c0,0.7,0.2,1.2,0.5,1.5s0.9,0.5,1.9,0.6v0.3c0,0-0.1,0-0.2,0
					c-1.2,0-2.1,0-2.7,0c-0.3,0-0.7,0-1,0C152.9,51.9,152.4,51.9,151.8,51.9z"/>
				<path id="XMLID_452_" fill="#B0915F" d="M172.3,46.1c0,1.6,0.4,3,1.2,4s1.8,1.5,3,1.5s2.2-0.5,2.9-1.4s1.1-2.1,1.1-3.7
					c0-0.7-0.1-1.3-0.3-2c-0.2-0.6-0.4-1.2-0.7-1.6c-0.4-0.6-0.9-1.1-1.4-1.4S177,41,176.3,41c-1.2,0-2.1,0.5-2.9,1.4
					C172.6,43.4,172.3,44.6,172.3,46.1z M170.4,46.3c0-1.7,0.5-3.1,1.6-4.1s2.5-1.5,4.4-1.5c1.8,0,3.2,0.5,4.3,1.6s1.6,2.5,1.6,4.2
					s-0.5,3.1-1.6,4.1s-2.6,1.5-4.4,1.5c-1.8,0-3.2-0.5-4.3-1.6C170.9,49.5,170.4,48.1,170.4,46.3z"/>
				<path id="XMLID_451_" fill="#B0915F" d="M183,51.9v-0.3c0.8,0,1.4-0.3,1.7-0.8s0.4-1.5,0.4-3v-3c0-0.1,0-0.3,0-0.6
					c0-0.2,0-0.4,0-0.5c0-0.5-0.1-0.9-0.2-1.2c-0.1-0.3-0.3-0.5-0.5-0.7s-0.4-0.3-0.7-0.4s-0.6-0.2-0.9-0.2v-0.3c0.2,0,0.4,0,0.7,0
					s0.6,0,0.7,0c0.2,0,0.4,0,0.7,0s0.5,0,0.6,0l7.9,8.5v-3.7c0-1.4,0-2.3-0.1-2.8s-0.2-0.8-0.4-1.1c-0.2-0.2-0.4-0.4-0.7-0.5
					s-0.7-0.2-1.1-0.2v-0.3c0.3,0,0.6,0,0.9,0c0.3,0,0.8,0,1.4,0c0.6,0,1.1,0,1.4,0c0.3,0,0.6,0,0.8,0v0.3h-0.1
					c-0.6,0-1,0.3-1.2,0.8c-0.2,0.6-0.3,1.6-0.3,3.2v3.4c0,0.8,0,1.5,0,2.1s0,1.2,0,1.7h0c-0.3-0.4-0.7-0.8-1-1.2
					c-0.4-0.4-0.6-0.7-0.6-0.7l-6.7-7.1v3.1c0,1.5,0,2.6,0.1,3.1s0.2,0.9,0.3,1.1s0.4,0.4,0.6,0.5c0.3,0.1,0.7,0.3,1.3,0.4v0.3l0,0
					c-1.1,0-1.9,0-2.4,0c-0.3,0-0.6,0-1,0C184.1,51.9,183.6,51.9,183,51.9z"/>
				<path id="XMLID_450_" fill="#B0915F" d="M202.1,48.6c0,0.8,0,1.4,0.1,1.7c0.1,0.3,0.2,0.6,0.3,0.7c0.2,0.2,0.4,0.3,0.7,0.4
					s0.6,0.2,1.1,0.3V52c-0.8,0-1.4,0-1.8,0c-0.4,0-0.8,0-1.1,0c-0.6,0-1.6,0-2.9,0l0,0v-0.3c0.4-0.1,0.8-0.2,1.1-0.3
					c0.3-0.1,0.5-0.2,0.7-0.4c0.2-0.2,0.3-0.4,0.3-0.7c0.1-0.3,0.1-0.9,0.1-1.7v-7.2h-1.1c-1,0-1.7,0.2-2.2,0.5s-0.8,0.8-1,1.6h-0.3
					l0.3-3.1h0.2l0.5,0.5c0.5,0,1.2,0,2.2,0s1.7,0,2.2,0s1.2,0,2.1,0c0.9,0,1.7,0,2.1,0l0.5-0.5h0.1l0.3,3.1l-0.3,0.1
					c-0.2-0.8-0.5-1.3-1-1.6c-0.5-0.3-1.1-0.5-2.1-0.5H202L202.1,48.6L202.1,48.6z"/>
				<path id="XMLID_449_" fill="#B0915F" d="M206.8,51.9v-0.3c0.8-0.1,1.4-0.3,1.7-0.5c0.3-0.3,0.4-0.8,0.4-1.6v-6.1
					c0-0.9-0.1-1.5-0.4-1.8c-0.3-0.3-0.8-0.4-1.5-0.5v-0.3c0.5,0,1.1,0,1.7,0c0.6,0,1.4,0,2.5,0c1.3,0,2.2,0,2.8,0s1.1,0,1.6,0
					c0,0.4-0.1,0.7-0.1,1.1s-0.1,0.9-0.1,1.4h-0.2c-0.1-0.8-0.3-1.3-0.7-1.6c-0.4-0.3-1.1-0.5-2.1-0.5h-2.1v4.6h1.6
					c0.9,0,1.5-0.1,1.8-0.3c0.3-0.2,0.5-0.6,0.6-1.2h0.3c0,0.3,0,0.7,0,1.4c0,0.6,0,1.1,0,1.4V48h-0.2c-0.1-0.6-0.2-0.9-0.6-1.2
					c-0.3-0.2-0.9-0.3-1.8-0.3h-1.6v2.8c0,0.9,0.2,1.4,0.5,1.7c0.4,0.3,1,0.4,2.1,0.4c0.9,0,1.7-0.2,2.2-0.7s0.9-1.2,1.1-2.1h0.3
					c0,0.6-0.1,1.2-0.2,1.7c-0.1,0.5-0.2,1.1-0.4,1.5c-0.7,0-1.6,0-2.5,0s-1.9,0-2.9,0s-1.7,0-2.2,0
					C207.8,51.9,207.3,51.9,206.8,51.9z"/>
				<path id="XMLID_448_" fill="#B0915F" d="M216.7,51.9v-0.3c0.5-0.1,0.9-0.2,1.1-0.4c0.2-0.2,0.4-0.6,0.6-1.1
					c0.1-0.4,0.2-0.9,0.3-1.6s0.2-1.5,0.3-2.5c0.1-0.8,0.2-1.6,0.2-2.2c0.1-0.6,0.1-1,0.1-1.2c0-0.5-0.1-0.8-0.4-1.1
					c-0.3-0.2-0.7-0.4-1.3-0.5v-0.3c0.2,0,0.4,0,0.7,0c0.2,0,0.6,0,1.1,0s0.8,0,1.1,0c0.2,0,0.4,0,0.6,0v0.2C221,41,221,41,221,41.1
					s0,0.1,0,0.2c0,0.3,0.3,1.1,0.9,2.4v0.1l2.5,5.5l3-6.7c0,0,0,0,0-0.1c0.2-0.4,0.3-0.8,0.3-1.1c0-0.1,0-0.2,0-0.3
					c0-0.1-0.1-0.1-0.1-0.2v-0.2c0.2,0,0.4,0,0.6,0c0.2,0,0.6,0,1.1,0s0.9,0,1.1,0c0.3,0,0.5,0,0.7,0V41c-0.6,0-1,0.2-1.3,0.5
					s-0.4,0.8-0.4,1.4c0,0.1,0,0.2,0,0.4c0,0.2,0,0.4,0,0.7l0.3,5.1c0.1,1,0.2,1.6,0.5,1.9c0.2,0.3,0.7,0.4,1.4,0.5v0.3
					c-0.6,0-1,0-1.4,0s-0.7,0-1.1,0c-0.6,0-1.5,0-2.7,0h-0.2v-0.3c0.8-0.1,1.3-0.3,1.6-0.5s0.4-0.7,0.4-1.3c0-0.1,0-0.2,0-0.3
					c0-0.1,0-0.1,0-0.2l-0.2-6.4l-2.4,5.4c-0.2,0.5-0.5,1-0.7,1.6c-0.3,0.6-0.6,1.4-1,2.3h-0.2c-0.2-0.5-0.4-0.9-0.6-1.4
					c-0.2-0.5-0.3-0.8-0.3-0.8l-3-6.6l-0.2,2.1c-0.1,0.9-0.2,1.8-0.2,2.6c-0.1,0.8-0.1,1.4-0.1,1.9c0,0.6,0.1,1,0.4,1.3
					c0.3,0.2,0.8,0.4,1.6,0.5V52h-0.1c-1,0-1.8,0-2.3,0c-0.3,0-0.6,0-0.9,0C217.7,51.9,217.2,51.9,216.7,51.9z"/>
				<path id="XMLID_445_" fill="#B0915F" d="M234.5,46.1c0,1.6,0.4,3,1.2,4s1.8,1.5,3,1.5s2.2-0.5,2.9-1.4s1.1-2.1,1.1-3.7
					c0-0.7-0.1-1.3-0.3-2c-0.2-0.6-0.4-1.2-0.7-1.6c-0.4-0.6-0.9-1.1-1.4-1.4s-1.1-0.5-1.8-0.5c-1.2,0-2.1,0.5-2.9,1.4
					C234.9,43.4,234.5,44.6,234.5,46.1z M232.6,46.3c0-1.7,0.5-3.1,1.6-4.1s2.5-1.5,4.4-1.5c1.8,0,3.2,0.5,4.3,1.6s1.6,2.5,1.6,4.2
					s-0.5,3.1-1.6,4.1s-2.6,1.5-4.4,1.5c-1.8,0-3.2-0.5-4.3-1.6C233.2,49.5,232.6,48.1,232.6,46.3z"/>
				<path id="XMLID_442_" fill="#B0915F" d="M249.1,46.4c1.1-0.1,1.9-0.3,2.5-0.8c0.6-0.4,0.9-1.1,0.9-1.8c0-0.8-0.3-1.4-0.9-1.9
					c-0.6-0.5-1.4-0.7-2.5-0.7V46.4z M245.6,51.9v-0.3c0.8-0.1,1.3-0.2,1.6-0.5s0.4-1,0.4-2.2v-5.3c0-0.7,0-1.1-0.1-1.4
					s-0.2-0.5-0.3-0.6s-0.3-0.2-0.5-0.3c-0.2-0.1-0.5-0.1-0.9-0.2v-0.3c1.2,0,2.4,0,3.7,0c0.3,0,0.5,0,0.6,0c1.4,0,2.4,0.2,3.1,0.7
					c0.7,0.5,1,1.1,1,2.1c0,0.6-0.2,1.1-0.5,1.5s-0.8,0.8-1.5,1.1c1,1.9,1.9,3.3,2.8,4.1c0.9,0.9,1.8,1.4,2.8,1.6v0.3
					c-0.1,0-0.2,0-0.3,0c-1.4-0.1-2.3-0.2-2.8-0.4c-0.3-0.1-0.6-0.4-0.9-0.6c-0.3-0.3-0.6-0.7-1-1.4c-0.3-0.4-0.6-0.9-0.9-1.5
					c-0.3-0.6-0.5-0.9-0.6-1s-0.2-0.2-0.4-0.3c-0.2-0.1-0.5-0.1-0.8-0.2l-0.8-0.1V49c0,1.1,0.2,1.8,0.5,2.1c0.3,0.3,0.9,0.5,1.8,0.6
					V52c-0.8,0-1.4,0-1.8,0c-0.4,0-0.8,0-1.1,0s-0.7,0-1.1,0C246.9,51.9,246.4,51.9,245.6,51.9z"/>
				<path id="XMLID_441_" fill="#B0915F" d="M257.7,51.9v-0.3c0.8-0.1,1.4-0.3,1.7-0.5c0.3-0.3,0.4-0.8,0.4-1.6v-6.1
					c0-0.9-0.1-1.5-0.4-1.8s-0.8-0.4-1.5-0.5v-0.3c0.5,0,1.1,0,1.6,0c0.6,0,1.4,0,2.5,0c1.3,0,2.2,0,2.8,0c0.6,0,1.1,0,1.6,0
					c0,0.4-0.1,0.7-0.1,1.1s-0.1,0.9-0.1,1.4H266c-0.1-0.8-0.3-1.3-0.7-1.6c-0.4-0.3-1.1-0.5-2.1-0.5h-2.1v4.6h1.6
					c0.9,0,1.5-0.1,1.8-0.3c0.3-0.2,0.5-0.6,0.6-1.2h0.3c0,0.3,0,0.7,0,1.4c0,0.6,0,1.1,0,1.4V48h-0.2c-0.1-0.6-0.2-0.9-0.6-1.2
					c-0.3-0.2-0.9-0.3-1.8-0.3h-1.6v2.8c0,0.9,0.2,1.4,0.5,1.7c0.4,0.3,1,0.4,2.1,0.4c0.9,0,1.7-0.2,2.2-0.7s0.9-1.2,1.1-2.1h0.3
					c0,0.6-0.1,1.2-0.2,1.7s-0.2,1.1-0.4,1.5c-0.7,0-1.6,0-2.5,0s-1.9,0-2.9,0s-1.7,0-2.2,0C258.6,51.9,258.1,51.9,257.7,51.9z"/>
				<path id="XMLID_440_" fill="#B0915F" d="M268.2,51.9v-0.3c0.8-0.1,1.4-0.2,1.6-0.6c0.3-0.3,0.4-1,0.4-2.1v-5.4
					c0-1-0.1-1.6-0.4-1.9s-0.8-0.5-1.7-0.6v-0.3c0.3,0,0.7,0,1,0c0.4,0,0.9,0,1.7,0c0.8,0,1.3,0,1.7,0c0.4,0,0.7,0,1.1,0V41
					c-0.8,0.1-1.4,0.3-1.6,0.6c-0.3,0.3-0.4,0.9-0.4,1.9v5.4c0,0.8,0,1.3,0,1.6c0,0.3,0.1,0.5,0.2,0.6s0.2,0.2,0.5,0.3
					c0.2,0,0.7,0.1,1.4,0.1c0.7,0,1.3,0,1.6-0.1c0.3-0.1,0.6-0.2,0.8-0.3c0.3-0.2,0.6-0.5,0.9-0.8s0.6-0.8,0.9-1.4l0.2,0.1l-0.9,3
					c-1,0-1.8,0-2.6,0c-0.8,0-1.5,0-2.2,0c-0.4,0-1.1,0-2.1,0C269.5,51.9,268.8,51.9,268.2,51.9z"/>
				<path id="XMLID_437_" fill="#B0915F" d="M280.9,46.1c0,1.6,0.4,3,1.2,4c0.8,1,1.8,1.5,3,1.5s2.2-0.5,2.9-1.4
					c0.7-0.9,1.1-2.1,1.1-3.7c0-0.7-0.1-1.3-0.3-2c-0.2-0.6-0.4-1.2-0.7-1.6c-0.4-0.6-0.9-1.1-1.4-1.4s-1.1-0.5-1.8-0.5
					c-1.2,0-2.1,0.5-2.9,1.4C281.3,43.4,280.9,44.6,280.9,46.1z M279,46.3c0-1.7,0.5-3.1,1.6-4.1s2.5-1.5,4.4-1.5
					c1.8,0,3.2,0.5,4.3,1.6c1.1,1.1,1.6,2.5,1.6,4.2s-0.5,3.1-1.6,4.1s-2.6,1.5-4.4,1.5s-3.2-0.5-4.3-1.6
					C279.5,49.5,279,48.1,279,46.3z"/>
				<path id="XMLID_436_" fill="#B0915F" d="M292.3,48.6h0.3c0.3,1,0.7,1.8,1.3,2.3c0.6,0.5,1.2,0.8,2,0.8c0.6,0,1.1-0.2,1.5-0.6
					s0.6-0.8,0.6-1.4c0-0.5-0.1-0.9-0.4-1.3s-0.7-0.8-1.2-1.1l-1.3-0.7c-0.7-0.4-1.2-0.8-1.5-1.3s-0.5-1-0.5-1.6
					c0-0.9,0.3-1.6,1-2.2s1.5-0.9,2.5-0.9c0.5,0,0.9,0.1,1.3,0.2s0.8,0.3,1.2,0.5c0,0.3-0.1,0.7-0.1,1.1s-0.1,0.8-0.1,1.4h-0.3
					c-0.1-0.9-0.4-1.6-0.8-2c-0.4-0.5-0.9-0.7-1.5-0.7s-1,0.2-1.4,0.6s-0.6,0.8-0.6,1.4c0,0.4,0.1,0.7,0.4,1.1
					c0.2,0.4,0.6,0.7,1,0.9l1.8,1.1c0.6,0.4,1.1,0.8,1.4,1.3s0.4,1,0.4,1.6c0,0.9-0.4,1.7-1.1,2.3c-0.7,0.6-1.7,0.9-2.7,0.9
					c-0.6,0-1.1-0.1-1.6-0.2s-1-0.4-1.4-0.6c-0.1-0.4-0.2-0.9-0.2-1.3C292.4,49.5,292.3,49.1,292.3,48.6z"/>
			</g>
			<g id="XMLID_411_">
				<path id="XMLID_434_" fill="#B0915F" d="M154.1,28v-4.8c0-0.8,0-1.4-0.1-1.7s-0.2-0.5-0.4-0.6c-0.2-0.2-0.5-0.3-0.8-0.4
					c-0.3-0.1-0.6-0.2-1-0.2V20c0.4,0,0.8,0,1.3,0c0.4,0,1.1,0,2,0s1.6,0,2.1,0s0.9,0,1.3,0v0.3c-1,0-1.7,0.2-2.1,0.6
					c-0.4,0.4-0.5,1.1-0.5,2.3v4.6c0,0.9,0.1,1.6,0.2,2.1c0.1,0.5,0.4,0.9,0.7,1.3c0.4,0.4,0.8,0.7,1.4,0.9c0.6,0.2,1.2,0.3,1.9,0.3
					c0.9,0,1.6-0.2,2.2-0.5c0.6-0.3,1-0.8,1.4-1.6c0.2-0.4,0.3-0.9,0.4-1.6c0.1-0.7,0.1-1.8,0.1-3.2s0-2.5-0.1-3
					c-0.1-0.6-0.2-1-0.4-1.3s-0.5-0.6-0.9-0.7c-0.4-0.2-0.9-0.2-1.5-0.3v-0.3c0.3,0,0.7,0,1.1,0c0.4,0,0.9,0,1.7,0s1.3,0,1.7,0
					s0.7,0,1.1,0v0.3l0,0c-0.7,0-1.2,0.3-1.5,0.8c-0.3,0.6-0.4,2-0.4,4.3c0,0.2,0,0.5,0,0.9c0,2.1-0.2,3.6-0.5,4.3
					c-0.4,0.9-1,1.5-1.9,2s-2,0.7-3.2,0.7c-1,0-1.9-0.1-2.7-0.4c-0.7-0.3-1.3-0.7-1.7-1.2c-0.3-0.4-0.5-0.8-0.6-1.3
					C154.2,29.9,154.1,29.1,154.1,28z"/>
				<path id="XMLID_433_" fill="#B0915F" d="M167.1,33v-0.3c0.8,0,1.4-0.3,1.7-0.8c0.3-0.5,0.4-1.5,0.4-3v-3c0-0.1,0-0.3,0-0.6
					c0-0.2,0-0.4,0-0.5c0-0.5-0.1-0.9-0.2-1.2c-0.1-0.3-0.3-0.5-0.5-0.7s-0.4-0.3-0.7-0.4c-0.3-0.1-0.6-0.2-0.9-0.2V22
					c0.2,0,0.4,0,0.7,0s0.6,0,0.7,0c0.2,0,0.4,0,0.7,0s0.5,0,0.6,0l7.9,8.5v-3.7c0-1.4,0-2.3-0.1-2.8s-0.2-0.8-0.4-1.1
					c-0.2-0.2-0.4-0.4-0.7-0.5s-0.7-0.2-1.1-0.2v-0.3c0.3,0,0.6,0,0.9,0c0.3,0,0.8,0,1.4,0c0.6,0,1.1,0,1.4,0c0.3,0,0.6,0,0.8,0v0.3
					h-0.1c-0.6,0-1,0.3-1.2,0.8c-0.2,0.6-0.3,1.6-0.3,3.2v3.4c0,0.8,0,1.5,0,2.1c0,0.6,0,1.2,0,1.7H178c-0.3-0.4-0.7-0.8-1-1.2
					c-0.4-0.4-0.6-0.7-0.6-0.7l-6.7-7.1v3.1c0,1.5,0,2.6,0.1,3.1s0.2,0.9,0.3,1.1c0.1,0.2,0.4,0.4,0.7,0.5s0.7,0.3,1.3,0.4v0.3l0,0
					c-1.1,0-1.9,0-2.4,0c-0.3,0-0.6,0-1,0C168.3,33,167.8,33,167.1,33z"/>
				<path id="XMLID_432_" fill="#B0915F" d="M180.5,33v-0.3c0.8,0,1.4-0.2,1.6-0.5c0.3-0.3,0.4-0.9,0.4-1.9v-5.7
					c0-1-0.1-1.6-0.4-1.9c-0.3-0.3-0.8-0.5-1.6-0.5v-0.3c0.3,0,0.8,0,1.4,0c0.6,0,1.1,0,1.4,0c0.3,0,0.8,0,1.4,0c0.6,0,1.1,0,1.4,0
					v0.3c-0.8,0.1-1.4,0.2-1.6,0.5c-0.3,0.3-0.4,0.9-0.4,1.9v5.7c0,1,0.1,1.6,0.4,1.9c0.3,0.3,0.8,0.5,1.6,0.5V33
					c-0.8,0-1.4,0-1.8,0c-0.4,0-0.7,0-1.1,0c-0.3,0-0.7,0-1.1,0C181.9,33,181.3,33,180.5,33z"/>
				<path id="XMLID_431_" fill="#B0915F" d="M192.5,33.6l-3.7-9.1c-0.4-0.9-0.7-1.5-1-1.8s-0.7-0.5-1.2-0.5v-0.3c0.3,0,0.6,0,0.9,0
					c0.3,0,0.9,0,1.6,0c0.7,0,1.3,0,1.6,0c0.4,0,0.7,0,1,0v0.3c-0.5,0-0.9,0.1-1.2,0.2c-0.3,0.1-0.4,0.4-0.4,0.7
					c0,0.2,0.1,0.5,0.2,1c0.2,0.5,0.4,1.1,0.7,1.8l2.1,5.2l2.1-5.2c0.3-0.7,0.5-1.3,0.6-1.7s0.2-0.8,0.2-1c0-0.3-0.1-0.6-0.4-0.7
					c-0.3-0.2-0.7-0.3-1.4-0.3v-0.3c0.3,0,0.6,0,0.9,0c0.3,0,0.8,0,1.4,0c0.6,0,1.1,0,1.4,0c0.3,0,0.6,0,0.8,0v0.3h-0.1
					c-0.5,0-1,0.2-1.4,0.7s-0.9,1.4-1.5,3l-2,4.8c-0.1,0.1-0.2,0.5-0.5,1.3c-0.2,0.6-0.5,1.2-0.6,1.6
					C192.6,33.6,192.5,33.6,192.5,33.6z"/>
				<path id="XMLID_430_" fill="#B0915F" d="M198.9,33v-0.3c0.8-0.1,1.4-0.3,1.7-0.5c0.3-0.3,0.4-0.8,0.4-1.6v-6.1
					c0-0.9-0.1-1.5-0.4-1.8c-0.3-0.3-0.8-0.4-1.5-0.5v-0.3c0.5,0,1.1,0,1.6,0c0.6,0,1.4,0,2.5,0c1.3,0,2.2,0,2.8,0s1.1,0,1.6,0
					c0,0.4-0.1,0.7-0.1,1.1c0,0.4-0.1,0.9-0.1,1.4h-0.2c-0.1-0.8-0.3-1.3-0.7-1.6s-1.1-0.5-2.1-0.5h-2.1v4.6h1.6
					c0.9,0,1.5-0.1,1.8-0.3s0.5-0.6,0.6-1.2h0.3c0,0.3,0,0.7,0,1.4c0,0.6,0,1.1,0,1.4v0.9h-0.2c-0.1-0.6-0.2-0.9-0.6-1.2
					c-0.3-0.2-0.9-0.3-1.8-0.3h-1.6v2.8c0,0.9,0.2,1.4,0.5,1.7c0.4,0.3,1,0.4,2.1,0.4c0.9,0,1.7-0.2,2.2-0.7
					c0.5-0.5,0.9-1.2,1.1-2.1h0.3c0,0.6-0.1,1.2-0.2,1.7c-0.1,0.5-0.2,1.1-0.4,1.5c-0.7,0-1.6,0-2.5,0s-1.9,0-2.9,0s-1.7,0-2.2,0
					C199.9,33,199.4,33,198.9,33z"/>
				<path id="XMLID_427_" fill="#B0915F" d="M213.2,27.5c1.1-0.1,1.9-0.3,2.5-0.8s0.9-1.1,0.9-1.8c0-0.8-0.3-1.4-0.9-1.9
					c-0.6-0.5-1.4-0.7-2.5-0.7V27.5z M209.7,33v-0.3c0.8-0.1,1.3-0.2,1.6-0.5c0.3-0.3,0.4-1,0.4-2.2v-5.3c0-0.7,0-1.1-0.1-1.4
					c-0.1-0.3-0.2-0.5-0.3-0.6s-0.3-0.2-0.5-0.3s-0.5-0.1-0.9-0.2v-0.3c1.2,0,2.4,0,3.7,0c0.3,0,0.5,0,0.6,0c1.4,0,2.4,0.2,3.1,0.7
					c0.7,0.5,1,1.1,1,2.1c0,0.6-0.2,1.1-0.5,1.5s-0.8,0.8-1.5,1.1c1,1.9,1.9,3.3,2.8,4.1c0.9,0.9,1.8,1.4,2.8,1.6v0.3
					c-0.1,0-0.2,0-0.3,0c-1.4-0.1-2.3-0.2-2.8-0.4c-0.3-0.1-0.6-0.4-0.9-0.6c-0.3-0.3-0.6-0.7-1-1.4c-0.3-0.4-0.6-0.9-0.9-1.4
					c-0.3-0.6-0.5-0.9-0.6-1s-0.2-0.2-0.4-0.3s-0.5-0.1-0.8-0.2l-0.8-0.1v2.3c0,1.1,0.2,1.8,0.5,2.1s0.9,0.5,1.8,0.6v0.3
					c-0.8,0-1.4,0-1.8,0c-0.4,0-0.8,0-1.1,0s-0.7,0-1.1,0C211,33,210.4,33,209.7,33z"/>
				<path id="XMLID_426_" fill="#B0915F" d="M222.2,29.7h0.3c0.3,1,0.7,1.8,1.3,2.3c0.6,0.5,1.2,0.8,2,0.8c0.6,0,1.1-0.2,1.5-0.6
					c0.4-0.4,0.6-0.8,0.6-1.4c0-0.5-0.1-0.9-0.4-1.3c-0.3-0.4-0.7-0.8-1.2-1.1l-1.3-0.7c-0.7-0.4-1.2-0.8-1.5-1.3s-0.5-1-0.5-1.6
					c0-0.9,0.3-1.6,1-2.2c0.7-0.6,1.5-0.9,2.5-0.9c0.5,0,0.9,0.1,1.3,0.2c0.4,0.1,0.8,0.3,1.2,0.5c0,0.3-0.1,0.7-0.1,1.1
					c0,0.4-0.1,0.8-0.1,1.4h-0.3c-0.1-0.9-0.4-1.6-0.8-2c-0.4-0.5-0.9-0.7-1.5-0.7s-1,0.2-1.4,0.6c-0.4,0.4-0.6,0.8-0.6,1.4
					c0,0.4,0.1,0.7,0.4,1.1c0.2,0.4,0.6,0.7,1,0.9l1.8,1.1c0.6,0.4,1.1,0.8,1.4,1.3c0.3,0.5,0.4,1,0.4,1.6c0,0.9-0.4,1.7-1.1,2.3
					c-0.7,0.6-1.7,0.9-2.7,0.9c-0.6,0-1.1-0.1-1.6-0.2c-0.5-0.1-1-0.4-1.4-0.6c-0.1-0.4-0.2-0.9-0.2-1.3
					C222.3,30.6,222.3,30.2,222.2,29.7z"/>
				<path id="XMLID_425_" fill="#B0915F" d="M230.5,33v-0.3c0.8,0,1.4-0.2,1.6-0.5c0.3-0.3,0.4-0.9,0.4-1.9v-5.7
					c0-1-0.1-1.6-0.4-1.9c-0.3-0.3-0.8-0.5-1.6-0.5v-0.3c0.3,0,0.8,0,1.4,0c0.6,0,1.1,0,1.4,0c0.3,0,0.8,0,1.4,0c0.6,0,1.1,0,1.4,0
					v0.3c-0.8,0.1-1.4,0.2-1.6,0.5c-0.3,0.3-0.4,0.9-0.4,1.9v5.7c0,1,0.1,1.6,0.4,1.9c0.3,0.3,0.8,0.5,1.6,0.5V33
					c-0.8,0-1.4,0-1.8,0c-0.4,0-0.7,0-1.1,0c-0.3,0-0.7,0-1.1,0C231.8,33,231.3,33,230.5,33z"/>
				<path id="XMLID_422_" fill="#B0915F" d="M240.3,30.1c0,1,0.2,1.7,0.5,2c0.3,0.3,0.9,0.5,1.9,0.5c1.2,0,2.3-0.4,3-1.3
					c0.8-0.9,1.2-2.1,1.2-3.5c0-1.7-0.6-3.1-1.7-4.1c-1.1-1-2.7-1.5-4.7-1.5h-0.1L240.3,30.1L240.3,30.1z M236.7,33v-0.3
					c0.8-0.1,1.4-0.2,1.7-0.5c0.3-0.3,0.4-0.8,0.4-1.6v-6.3c0-0.7-0.1-1.2-0.4-1.5c-0.3-0.3-0.8-0.5-1.5-0.5V22c0.9,0,1.8,0,2.8,0
					s1.6,0,1.7,0c2.3,0,4.1,0.5,5.4,1.5c1.3,1,2,2.4,2,4.1c0,1.7-0.6,3.1-1.9,4c-1.3,1-3,1.5-5.2,1.5c-0.4,0-1.2,0-2.3,0
					C238.2,33,237.3,33,236.7,33z"/>
				<path id="XMLID_419_" fill="#B0915F" d="M252.8,27.7h3.2l-1.6-4.4L252.8,27.7z M249,33v-0.3c0.4-0.1,0.6-0.1,0.8-0.2
					c0.2-0.1,0.4-0.2,0.5-0.4c0.2-0.2,0.7-1.5,1.6-3.7c0.2-0.5,0.3-0.9,0.4-1.1l1.8-4.8l-0.1-0.3c0.2-0.1,0.4-0.2,0.6-0.3
					c0.2-0.1,0.4-0.3,0.6-0.6l3.5,9.5c0.3,0.8,0.6,1.3,0.9,1.6s0.7,0.4,1.2,0.4v0.3c-0.6,0-1.1,0-1.4,0s-0.6,0-0.9,0s-0.6,0-0.9,0
					s-0.8,0-1.5,0v-0.3c0.4,0,0.7-0.1,0.9-0.3c0.2-0.2,0.3-0.4,0.3-0.6c0-0.1,0-0.3-0.1-0.5c0-0.2-0.1-0.4-0.2-0.6l-0.8-2.3h-3.8
					l-0.3,0.9c-0.2,0.6-0.4,1.1-0.5,1.5s-0.1,0.7-0.1,0.9c0,0.3,0.1,0.6,0.4,0.7c0.3,0.2,0.7,0.3,1.4,0.3v0.3l0,0c-1,0-1.8,0-2.3,0
					c-0.3,0-0.6,0-0.9,0C250,33,249.6,33,249,33z"/>
				<path id="XMLID_416_" fill="#B0915F" d="M264.4,30.1c0,1,0.2,1.7,0.5,2c0.3,0.3,0.9,0.5,1.9,0.5c1.2,0,2.3-0.4,3-1.3
					c0.8-0.9,1.2-2.1,1.2-3.5c0-1.7-0.6-3.1-1.7-4.1s-2.7-1.5-4.7-1.5h-0.1L264.4,30.1L264.4,30.1z M260.8,33v-0.3
					c0.8-0.1,1.4-0.2,1.7-0.5c0.3-0.3,0.4-0.8,0.4-1.6v-6.3c0-0.7-0.1-1.2-0.4-1.5s-0.8-0.5-1.5-0.5V22c0.9,0,1.8,0,2.8,0
					s1.6,0,1.7,0c2.3,0,4.1,0.5,5.4,1.5s2,2.4,2,4.1c0,1.7-0.6,3.1-1.9,4c-1.3,1-3,1.5-5.2,1.5c-0.4,0-1.2,0-2.3,0
					C262.4,33,261.5,33,260.8,33z"/>
				<path id="XMLID_413_" fill="#B0915F" d="M281,30.1c0,1,0.2,1.7,0.5,2c0.3,0.3,0.9,0.5,1.9,0.5c1.2,0,2.3-0.4,3.1-1.3
					c0.8-0.9,1.2-2.1,1.2-3.5c0-1.7-0.6-3.1-1.7-4.1s-2.7-1.5-4.7-1.5H281V30.1z M277.4,33v-0.3c0.8-0.1,1.4-0.2,1.7-0.5
					c0.3-0.3,0.4-0.8,0.4-1.6v-6.3c0-0.7-0.1-1.2-0.4-1.5s-0.8-0.5-1.5-0.5V22c0.9,0,1.8,0,2.8,0s1.6,0,1.7,0c2.3,0,4.1,0.5,5.4,1.5
					s2,2.4,2,4.1c0,1.7-0.6,3.1-1.9,4c-1.3,1-3,1.5-5.2,1.5c-0.4,0-1.2,0-2.3,0C278.9,33,278,33,277.4,33z"/>
				<path id="XMLID_412_" fill="#B0915F" d="M289.5,33v-0.3c0.8-0.1,1.4-0.3,1.7-0.5c0.3-0.3,0.4-0.8,0.4-1.6v-6.1
					c0-0.9-0.1-1.5-0.4-1.8s-0.8-0.4-1.5-0.5v-0.3c0.5,0,1.1,0,1.7,0s1.4,0,2.5,0c1.3,0,2.2,0,2.8,0c0.6,0,1.1,0,1.6,0
					c0,0.4-0.1,0.7-0.1,1.1c0,0.4-0.1,0.9-0.1,1.4h-0.2c-0.1-0.8-0.3-1.3-0.7-1.6c-0.4-0.3-1.1-0.5-2.1-0.5H293v4.6h1.6
					c0.9,0,1.5-0.1,1.8-0.3s0.5-0.6,0.6-1.2h0.3c0,0.3,0,0.7,0,1.4c0,0.6,0,1.1,0,1.4v0.9h-0.2c-0.1-0.6-0.2-0.9-0.6-1.2
					c-0.3-0.2-0.9-0.3-1.8-0.3h-1.6v2.8c0,0.9,0.2,1.4,0.5,1.7c0.4,0.3,1,0.4,2.1,0.4c0.9,0,1.7-0.2,2.2-0.7
					c0.5-0.5,0.9-1.2,1.1-2.1h0.3c0,0.6-0.1,1.2-0.2,1.7s-0.2,1.1-0.4,1.5c-0.7,0-1.6,0-2.5,0s-1.9,0-2.9,0s-1.7,0-2.2,0
					C290.5,33,290,33,289.5,33z"/>
			</g>
		</g>
	</g>
	<rect y="-26.2" fill="none" width="403.2" height="111.3"/>
</g>
</svg>
