<?xml version="1.0" encoding="utf-8"?>
<!-- Generator: Adobe Illustrator 21.0.2, SVG Export Plug-In . SVG Version: 6.00 Build 0)  -->
<svg version="1.1" id="Capa_1" xmlns="http://www.w3.org/2000/svg" xmlns:xlink="http://www.w3.org/1999/xlink" x="0px" y="0px"
	 width="403.2px" height="40.2px" viewBox="0 0 403.2 40.2" enable-background="new 0 0 403.2 40.2" xml:space="preserve">
<g>
	<g>
		<g id="XMLID_508_">
			<path fill="#B1936E" d="M120.7,28.6c-0.6,0-0.7-0.1-0.8-3c-0.8,1.1-1.3,1.5-1.9,2c-1.2,0.8-3.1,1.4-4.6,1.4c-1.8,0-3.9-0.8-5-1.9
				c-1.2-1.2-1.9-3.1-1.9-5.4c0-0.2,0-0.6,0-0.9v-0.7v-5.3c0-2.5-2.7-2.2-2.8-2.6c-0.1-0.4,3.3-0.6,5.5-1c0.5-0.1,0.6,0.1,0.6,1.4
				l-0.1,7.9v1c0,3.4,2.1,5.8,5.1,5.8c2.9,0,5.3-2.1,5.1-4.5v-0.1V15c0-3-2.9-2.4-2.9-2.7c0-0.5,4.2-0.9,5.5-1.1
				c0.3,0,0.6,0,0.6,1.1v2.5c1.7-2,3.8-3.1,6.2-3.1c2.6,0,4.1,1,5.6,3.4c1.8-2.3,3.9-3.4,6.5-3.4c4,0,6.5,2.8,6.5,7.4v5.1
				c0,1,0.2,2,0.5,2.4c0.4,0.5,1.6,1.1,2.5,1.2c0.4,0,0.6,0.2,0.6,0.5s-0.2,0.4-0.5,0.4c-0.2,0-7.4,0-7.6,0c-0.3,0-0.6-0.2-0.6-0.5
				c0-0.2,0.1-0.3,0.4-0.4c1.6-0.6,1.7-0.7,1.7-3.2v-4.7c0-2.2-0.3-3.4-1.2-4.6c-0.9-1.3-2.2-1.9-3.7-1.9c-2.3,0-4.6,1.5-4.6,3
				c0,0.1,0,0.3,0,0.6c0.1,0.7,0.1,0.8,0.1,1.5v5.9c0,2.3,0.6,3.1,2.8,3.3c0.5,0,0.8,0.2,0.8,0.5s-0.2,0.4-0.6,0.4c0,0-7.5,0-7.6,0
				c-0.3,0-0.6-0.1-0.6-0.5c0-0.1,0.1-0.3,0.4-0.4c1.6-0.6,1.6-0.7,1.6-3v-6.2c0-3.2-1.8-5.2-4.7-5.2c-2.7,0-4.5,1.5-4.5,3.8v7.5
				c0,0.6,0,1.1,0,1.6c0.2,1.3,3,1.2,3,1.4c0,0.2-0.1,0.3-0.3,0.4C126,28.1,120.7,28.6,120.7,28.6z"/>
		</g>
		<g id="XMLID_506_">
			<path fill="#2E194A" d="M267.6,13.6l3.7,7.1c1,0.1,2,0.1,3,0.2l-5.1-9.2h-3l-4.7,8.5c0.9,0,1.7,0.1,2.6,0.1L267.6,13.6z"/>
		</g>
		<g id="XMLID_504_">
			<path fill="#2E194A" d="M286.9,11.6h-2.8v9.9c0.9,0.1,1.9,0.2,2.8,0.2V11.6z"/>
		</g>
		<g id="XMLID_502_">
			<path fill="#635285" d="M275.5,28.6h3.1l-4.3-7.8c-1-0.1-2-0.1-3-0.2L275.5,28.6z"/>
		</g>
		<g id="XMLID_500_">
			<path fill="#635285" d="M259.6,28.6l4.4-8.3c-0.9,0-1.7-0.1-2.6-0.1l-4.6,8.5L259.6,28.6L259.6,28.6z"/>
		</g>
		<g id="XMLID_498_">
			<path fill="#635285" d="M299.8,28.6v-2.4h-12.9v-4.5c-0.9-0.1-1.9-0.2-2.8-0.2v7.1H299.8z"/>
		</g>
		<g id="XMLID_496_">
			<polygon fill="#FFFFFF" points="169.2,11.6 164.1,21.8 164.1,21.8 			"/>
		</g>
		<g id="XMLID_494_">
			<path fill="#2E194A" d="M154.6,11.6h-3.1l5.9,10.8c0.9-0.1,1.8-0.2,2.7-0.3L154.6,11.6z"/>
		</g>
		<g id="XMLID_492_">
			<path fill="#2E194A" d="M180.3,11.6h-2.8v9.2c0.9-0.1,1.9-0.1,2.8-0.2V11.6z"/>
		</g>
		<g id="XMLID_490_">
			<path fill="#2E194A" d="M220.8,13.9h7.8v-2.3h-18.4v2.3h7.8v5.4c0.9,0,1.9,0,2.8,0L220.8,13.9L220.8,13.9z"/>
		</g>
		<g id="XMLID_488_">
			<path fill="#2E194A" d="M251.4,11.6h-2.8v8c0.9,0,1.9,0.1,2.8,0.1V11.6z"/>
		</g>
		<g id="XMLID_486_">
			<path fill="#2E194A" d="M236.2,11.6h-2.8v7.8c0.9,0,1.9,0,2.8,0V11.6z"/>
		</g>
		<g id="XMLID_484_">
			<path fill="#FFFFFF" d="M197,19.8L197,19.8c0.6,0,1.3,0,1.9,0H197z"/>
		</g>
		<g id="XMLID_482_">
			<path fill="#2E194A" d="M192,13.8h9.7c0.7,0,1.2,0.1,1.4,0.4c0.3,0.3,0.4,0.7,0.4,1.4V18c0,0.7-0.1,1.1-0.4,1.4
				c-0.1,0.1-0.3,0.2-0.5,0.2c1.2,0,2.4-0.1,3.7-0.1c0-0.3,0.1-0.6,0.1-0.9v-3.8c0-1.2-0.3-2-0.9-2.5c-0.6-0.5-1.5-0.8-2.7-0.8
				h-13.7V20c0.9,0,1.9-0.1,2.8-0.1L192,13.8L192,13.8z"/>
		</g>
		<g id="XMLID_480_">
			<path fill="#FFFFFF" d="M166.8,21.6l5.2-10L166.8,21.6z"/>
		</g>
		<g id="XMLID_478_">
			<path fill="#AF8F5D" d="M166.8,21.6l5.2-9.9h-2.8L164,21.9C165,21.7,165.9,21.6,166.8,21.6z"/>
		</g>
		<g id="XMLID_476_" opacity="0.3">
			<path fill="#FFFFFF" d="M201.7,19.8c0.4,0,0.7,0,0.9-0.1c-1.3,0-2.5,0.1-3.8,0.1H201.7z"/>
		</g>
		<g id="XMLID_474_">
			<path fill="#635285" d="M160.8,28.6l1.3-2.8l2-4l0,0l-2,4l-1.9-3.6c-0.9,0.1-1.8,0.2-2.7,0.3L160.8,28.6L160.8,28.6z"/>
		</g>
		<g id="XMLID_472_">
			<path fill="#635285" d="M180.3,28.6v-8c-0.9,0.1-1.9,0.1-2.8,0.2v7.8H180.3z"/>
		</g>
		<g id="XMLID_470_">
			<path fill="#635285" d="M220.8,28.6v-9.2c-0.9,0-1.9,0-2.8,0v9.2H220.8z"/>
		</g>
		<g id="XMLID_468_">
			<path fill="#635285" d="M234.2,27.8c0.6,0.6,1.6,0.8,3.1,0.8h10.1c1.5,0,2.6-0.3,3.1-0.8c0.5-0.6,0.8-1.6,0.8-3.2v-4.8
				c-0.9,0-1.9-0.1-2.8-0.1v6.6h-12.4v-6.8c-0.9,0-1.9,0-2.8,0v5.2C233.3,26.1,233.6,27.2,234.2,27.8z"/>
		</g>
		<g id="XMLID_466_">
			<path fill="#635285" d="M192,28.6V20c-0.9,0-1.9,0.1-2.8,0.1v8.4L192,28.6L192,28.6z"/>
		</g>
		<g id="XMLID_464_">
			<path fill="#635285" d="M201.7,19.8h-2.8c-0.6,0-1.3,0-1.9,0.1V22l6.9,6.6h4.2l-7.8-6.6h2.5c1.2,0,2.2-0.3,2.7-0.8
				c0.4-0.4,0.7-0.9,0.8-1.6c-1.2,0-2.4,0.1-3.7,0.1C202.4,19.7,202.1,19.8,201.7,19.8z"/>
		</g>
		<g id="XMLID_462_">
			<path fill="#C7A880" d="M166.8,21.6c-0.9,0.1-1.8,0.1-2.7,0.2l-2,4l-1.3,2.8h2.4L166.8,21.6z"/>
		</g>
		<g id="XMLID_460_">
			
				<radialGradient id="SVGID_1_" cx="266.7346" cy="16.7928" r="8.3723" gradientTransform="matrix(1 0 0 -1 0 38.0969)" gradientUnits="userSpaceOnUse">
				<stop  offset="0" style="stop-color:#D8C396"/>
				<stop  offset="1" style="stop-color:#B1915F"/>
			</radialGradient>
			<path fill="url(#SVGID_1_)" d="M256,22.4l-0.8,1.7c9.7-0.2,20.4-1.7,23-5.8c-4.6,2.3-11.9,3.8-19.3,4c-0.2,0-2,0.1-2,0.1H256z"/>
		</g>
	</g>
	<rect y="-38" fill="none" width="403.2" height="111.3"/>
</g>
</svg>
