<?xml version="1.0" encoding="utf-8"?>
<!-- Generator: Adobe Illustrator 21.0.2, SVG Export Plug-In . SVG Version: 6.00 Build 0)  -->
<svg version="1.1" id="Capa_1" xmlns="http://www.w3.org/2000/svg" xmlns:xlink="http://www.w3.org/1999/xlink" x="0px" y="0px"
	 width="75.3px" height="15.7px" viewBox="0 0 75.3 15.7" enable-background="new 0 0 75.3 15.7" xml:space="preserve">
<g>
	<g id="XMLID_272_">
		<path id="XMLID_275_" fill="#FFFFFF" d="M10.3,12c-0.4-0.7-0.5-1.7,0.2-2.8c0.6-0.9,1.3-1.6,0.8-3.2c1,1.1,1.3,2.5,0.9,3.5
			C11.7,10.7,10.6,10.9,10.3,12z"/>
		<path id="XMLID_274_" fill="#FFFFFF" d="M7.7,12.3c-2.1-0.3-4.4-3.1-2.1-6c2.1-2.8,3.5-4.2,2-6.3c2.2,1.9,1.2,4.2-0.5,6.9
			C6.2,8.3,5.7,10.6,7.7,12.3z"/>
		<path id="XMLID_273_" fill="#FFFFFF" d="M1.5,13.5c0,0,0.9-0.1,3.2-0.7c1.2-0.3,2.6-0.1,3.1,0.5c0.5,0.5,0.7,1.1,0.7,1.2
			C8.6,14.6,8.6,15,8.6,15s0.2-0.5,0.3-0.6c0-0.1,0.3-0.1,0.5-0.6c0.1-0.4,0-0.9-0.7-1.4C7.2,11.3,7,8.8,8.3,7
			c1.6-2.3,1.8-3.6,1.1-4.7c2.5,2.2,1,4.6,0.2,5.8C8.9,9.1,8.7,10,8.9,11c0,0.2,0.1,0.5,0.3,0.9c0.2,0.3,0.5,1,0.9,0.9
			c0.7-0.3,1.5-0.1,2.7,0.2c2.1,0.4,2.9,0.6,2.9,0.6l1.6,2.1c0,0-3.8-0.7-5.2-0.9c-1.5-0.2-3,0-3.5,0.9c-0.5-0.9-1.9-1.1-3.4-0.9
			C3.9,14.9,0,15.7,0,15.7L1.5,13.5z"/>
	</g>
	<g id="XMLID_226_">
		<g id="XMLID_251_">
			<path id="XMLID_271_" fill-rule="evenodd" clip-rule="evenodd" fill="#FFFFFF" d="M18.7,15.5v-0.1c0.2,0,0.4-0.1,0.5-0.2
				c0.1-0.1,0.2-0.3,0.3-0.5c0-0.2,0.1-0.4,0.1-0.7c0-0.3,0.1-0.7,0.2-1.1c0-0.4,0.1-0.7,0.1-1c0-0.3,0-0.5,0-0.5
				c0-0.2-0.1-0.4-0.2-0.5c-0.1-0.1-0.3-0.2-0.6-0.2v-0.1c0.1,0,0.2,0,0.3,0c0.1,0,0.3,0,0.5,0c0.2,0,0.4,0,0.5,0c0.1,0,0.2,0,0.3,0
				v0.1c0,0,0,0.1-0.1,0.1c0,0,0,0,0,0.1c0,0.1,0.1,0.5,0.4,1.1c0,0,0,0,0,0l1.1,2.5l1.4-3c0,0,0,0,0,0c0.1-0.2,0.1-0.4,0.1-0.5
				c0,0,0-0.1,0-0.1c0,0,0-0.1-0.1-0.1v-0.1c0.1,0,0.2,0,0.3,0c0.1,0,0.3,0,0.5,0c0.2,0,0.4,0,0.5,0c0.1,0,0.2,0,0.3,0v0.1
				c-0.3,0-0.5,0.1-0.6,0.2c-0.1,0.1-0.2,0.3-0.2,0.6c0,0,0,0.1,0,0.2c0,0.1,0,0.2,0,0.3l0.1,2.3c0,0.5,0.1,0.7,0.2,0.9
				c0.1,0.1,0.3,0.2,0.6,0.2v0.1c-0.3,0-0.5,0-0.6,0c-0.2,0-0.3,0-0.5,0c-0.3,0-0.7,0-1.2,0h-0.1v-0.1c0.4,0,0.6-0.1,0.7-0.2
				c0.1-0.1,0.2-0.3,0.2-0.6c0-0.1,0-0.1,0-0.1c0,0,0-0.1,0-0.1l-0.2-3l-1.1,2.4c-0.1,0.2-0.2,0.4-0.3,0.7c-0.1,0.3-0.3,0.6-0.4,1
				h-0.1c-0.1-0.2-0.2-0.4-0.3-0.7c-0.1-0.2-0.1-0.4-0.2-0.4l-1.3-3l-0.1,1c0,0.4-0.1,0.8-0.1,1.2c0,0.4,0,0.7,0,0.9
				c0,0.3,0.1,0.5,0.2,0.6c0.1,0.1,0.4,0.2,0.7,0.2v0.1c0,0,0,0-0.1,0c-0.5,0-0.8,0-1,0c-0.1,0-0.3,0-0.4,0
				C19.1,15.5,18.9,15.5,18.7,15.5z"/>
			<path id="XMLID_268_" fill-rule="evenodd" clip-rule="evenodd" fill="#FFFFFF" d="M26.5,13.3c0,0.6,0.2,1.1,0.5,1.5
				c0.3,0.4,0.7,0.6,1.2,0.6c0.5,0,0.8-0.2,1.1-0.5c0.3-0.4,0.4-0.8,0.4-1.4c0-0.3,0-0.5-0.1-0.7c-0.1-0.2-0.2-0.4-0.3-0.6
				c-0.2-0.2-0.3-0.4-0.5-0.5c-0.2-0.1-0.4-0.2-0.7-0.2c-0.5,0-0.8,0.2-1.1,0.5C26.7,12.2,26.5,12.7,26.5,13.3z M25.8,13.4
				c0-0.7,0.2-1.2,0.6-1.6c0.4-0.4,1-0.6,1.7-0.6c0.7,0,1.2,0.2,1.6,0.6c0.4,0.4,0.6,0.9,0.6,1.6c0,0.6-0.2,1.2-0.6,1.6
				c-0.4,0.4-1,0.6-1.7,0.6c-0.7,0-1.2-0.2-1.6-0.6C26,14.6,25.8,14,25.8,13.4z"/>
			<path id="XMLID_267_" fill-rule="evenodd" clip-rule="evenodd" fill="#FFFFFF" d="M30.6,15.5l0-0.1c0.3,0,0.5-0.1,0.6-0.3
				c0.1-0.2,0.2-0.6,0.2-1.2v-1.2c0-0.1,0-0.1,0-0.2c0-0.1,0-0.2,0-0.2c0-0.2,0-0.3-0.1-0.4c0-0.1-0.1-0.2-0.2-0.3
				c-0.1-0.1-0.2-0.1-0.3-0.2c-0.1,0-0.2-0.1-0.4-0.1v-0.1c0.1,0,0.2,0,0.3,0c0.1,0,0.2,0,0.3,0c0.1,0,0.1,0,0.3,0
				c0.1,0,0.2,0,0.2,0l3,3.2v-1.4c0-0.5,0-0.9,0-1.1c0-0.2-0.1-0.3-0.2-0.4c-0.1-0.1-0.1-0.1-0.3-0.2c-0.1,0-0.3-0.1-0.4-0.1v-0.1
				c0.1,0,0.2,0,0.3,0c0.1,0,0.3,0,0.5,0c0.2,0,0.4,0,0.5,0c0.1,0,0.2,0,0.3,0v0.1h0c-0.2,0-0.4,0.1-0.5,0.3
				c-0.1,0.2-0.1,0.6-0.1,1.2v1.3c0,0.3,0,0.6,0,0.8c0,0.2,0,0.4,0,0.6h0c-0.1-0.1-0.3-0.3-0.4-0.5c-0.1-0.2-0.2-0.3-0.2-0.3
				l-2.6-2.7v1.2c0,0.6,0,1,0,1.2c0,0.2,0.1,0.4,0.1,0.4c0.1,0.1,0.1,0.2,0.2,0.2c0.1,0.1,0.3,0.1,0.5,0.1v0.1c0,0,0,0,0,0
				c-0.4,0-0.7,0-0.9,0c-0.1,0-0.2,0-0.4,0C31.1,15.5,30.9,15.5,30.6,15.5z"/>
			<path id="XMLID_266_" fill-rule="evenodd" clip-rule="evenodd" fill="#FFFFFF" d="M38,14.2c0,0.3,0,0.5,0,0.6
				c0,0.1,0.1,0.2,0.1,0.3c0.1,0.1,0.1,0.1,0.3,0.1c0.1,0,0.2,0.1,0.4,0.1l0,0.1c-0.3,0-0.5,0-0.7,0c-0.2,0-0.3,0-0.4,0
				c-0.2,0-0.6,0-1.1,0h0v-0.1c0.2,0,0.3-0.1,0.4-0.1c0.1,0,0.2-0.1,0.3-0.1c0.1-0.1,0.1-0.1,0.1-0.3c0-0.1,0-0.3,0-0.6v-2.8H37
				c-0.4,0-0.7,0.1-0.8,0.2c-0.2,0.1-0.3,0.3-0.4,0.6l-0.1,0l0.1-1.2h0.1l0.2,0.2c0.2,0,0.5,0,0.8,0c0.4,0,0.6,0,0.8,0
				c0.2,0,0.5,0,0.8,0c0.4,0,0.6,0,0.8,0l0.2-0.2h0l0.1,1.2l-0.1,0c-0.1-0.3-0.2-0.5-0.4-0.6c-0.2-0.1-0.4-0.2-0.8-0.2H38V14.2z"/>
			<path id="XMLID_265_" fill-rule="evenodd" clip-rule="evenodd" fill="#FFFFFF" d="M39.8,15.5v-0.1c0.3,0,0.5-0.1,0.6-0.2
				c0.1-0.1,0.2-0.3,0.2-0.6v-2.3c0-0.3-0.1-0.6-0.2-0.7c-0.1-0.1-0.3-0.2-0.6-0.2v-0.1c0.2,0,0.4,0,0.6,0c0.2,0,0.5,0,1,0
				c0.5,0,0.9,0,1.1,0c0.2,0,0.4,0,0.6,0c0,0.1,0,0.3,0,0.4c0,0.2,0,0.3,0,0.5H43c0-0.3-0.1-0.5-0.3-0.6c-0.1-0.1-0.4-0.2-0.8-0.2
				h-0.8v1.7h0.6c0.3,0,0.6,0,0.7-0.1c0.1-0.1,0.2-0.2,0.2-0.5h0.1c0,0.1,0,0.3,0,0.5c0,0.2,0,0.4,0,0.6V14h-0.1
				c0-0.2-0.1-0.4-0.2-0.4c-0.1-0.1-0.4-0.1-0.7-0.1h-0.6v1.1c0,0.3,0.1,0.5,0.2,0.7c0.1,0.1,0.4,0.2,0.8,0.2c0.4,0,0.6-0.1,0.8-0.3
				c0.2-0.2,0.3-0.4,0.4-0.8l0.1,0c0,0.2,0,0.4-0.1,0.7c0,0.2-0.1,0.4-0.2,0.6c-0.3,0-0.6,0-0.9,0c-0.3,0-0.7,0-1.1,0
				c-0.4,0-0.7,0-0.9,0C40.1,15.5,40,15.5,39.8,15.5z"/>
			<path id="XMLID_264_" fill-rule="evenodd" clip-rule="evenodd" fill="#FFFFFF" d="M43.6,15.5v-0.1c0.2,0,0.3-0.1,0.4-0.2
				c0.1-0.1,0.2-0.2,0.2-0.4c0-0.1,0.1-0.3,0.1-0.6c0-0.3,0.1-0.6,0.1-1c0-0.3,0.1-0.6,0.1-0.8c0-0.2,0-0.4,0-0.5
				c0-0.2-0.1-0.3-0.2-0.4c-0.1-0.1-0.3-0.2-0.5-0.2v-0.1c0.1,0,0.2,0,0.3,0c0.1,0,0.2,0,0.4,0c0.2,0,0.3,0,0.4,0c0.1,0,0.2,0,0.2,0
				v0.1c0,0,0,0,0,0.1c0,0,0,0,0,0.1c0,0.1,0.1,0.4,0.3,0.9c0,0,0,0,0,0l0.9,2.1l1.2-2.6c0,0,0,0,0,0c0.1-0.2,0.1-0.3,0.1-0.4
				c0,0,0-0.1,0-0.1c0,0,0-0.1,0-0.1v-0.1c0.1,0,0.2,0,0.2,0c0.1,0,0.2,0,0.4,0c0.2,0,0.3,0,0.4,0c0.1,0,0.2,0,0.3,0v0.1
				c-0.2,0-0.4,0.1-0.5,0.2c-0.1,0.1-0.2,0.3-0.2,0.5c0,0,0,0.1,0,0.1c0,0.1,0,0.2,0,0.3l0.1,2c0,0.4,0.1,0.6,0.2,0.7
				c0.1,0.1,0.3,0.2,0.5,0.2v0.1c-0.2,0-0.4,0-0.5,0c-0.1,0-0.3,0-0.4,0c-0.2,0-0.6,0-1,0h-0.1v-0.1c0.3,0,0.5-0.1,0.6-0.2
				c0.1-0.1,0.2-0.3,0.2-0.5c0,0,0-0.1,0-0.1c0,0,0,0,0-0.1L47.9,12L47,14.1c-0.1,0.2-0.2,0.4-0.3,0.6c-0.1,0.2-0.2,0.5-0.4,0.9
				h-0.1c-0.1-0.2-0.2-0.4-0.2-0.6c-0.1-0.2-0.1-0.3-0.1-0.3l-1.1-2.5L44.7,13c0,0.4-0.1,0.7-0.1,1c0,0.3,0,0.6,0,0.7
				c0,0.2,0,0.4,0.1,0.5c0.1,0.1,0.3,0.2,0.6,0.2v0.1c0,0,0,0-0.1,0c-0.4,0-0.7,0-0.9,0c-0.1,0-0.2,0-0.3,0
				C43.9,15.5,43.8,15.5,43.6,15.5z"/>
			<path id="XMLID_261_" fill-rule="evenodd" clip-rule="evenodd" fill="#FFFFFF" d="M50.4,13.3c0,0.6,0.2,1.1,0.5,1.5
				c0.3,0.4,0.7,0.6,1.2,0.6c0.5,0,0.8-0.2,1.1-0.5c0.3-0.4,0.4-0.8,0.4-1.4c0-0.3,0-0.5-0.1-0.7c-0.1-0.2-0.2-0.4-0.3-0.6
				c-0.2-0.2-0.3-0.4-0.5-0.5c-0.2-0.1-0.4-0.2-0.7-0.2c-0.5,0-0.8,0.2-1.1,0.5C50.5,12.2,50.4,12.7,50.4,13.3z M49.7,13.4
				c0-0.7,0.2-1.2,0.6-1.6c0.4-0.4,1-0.6,1.7-0.6c0.7,0,1.2,0.2,1.6,0.6c0.4,0.4,0.6,0.9,0.6,1.6c0,0.6-0.2,1.2-0.6,1.6
				c-0.4,0.4-1,0.6-1.7,0.6c-0.7,0-1.2-0.2-1.6-0.6C49.9,14.6,49.7,14,49.7,13.4z"/>
			<path id="XMLID_258_" fill-rule="evenodd" clip-rule="evenodd" fill="#FFFFFF" d="M56,13.4c0.4,0,0.7-0.1,1-0.3
				c0.2-0.2,0.3-0.4,0.3-0.7c0-0.3-0.1-0.5-0.3-0.7c-0.2-0.2-0.6-0.3-1-0.3V13.4z M54.6,15.5l0-0.1c0.3,0,0.5-0.1,0.6-0.2
				c0.1-0.1,0.2-0.4,0.2-0.8v-2c0-0.3,0-0.4,0-0.5c0-0.1-0.1-0.2-0.1-0.2c0,0-0.1-0.1-0.2-0.1c-0.1,0-0.2-0.1-0.3-0.1v-0.1
				c0.5,0,0.9,0,1.4,0c0.1,0,0.2,0,0.2,0c0.5,0,0.9,0.1,1.2,0.3c0.3,0.2,0.4,0.4,0.4,0.8c0,0.2-0.1,0.4-0.2,0.6
				c-0.1,0.2-0.3,0.3-0.6,0.4c0.4,0.7,0.7,1.2,1.1,1.6c0.3,0.3,0.7,0.5,1.1,0.6l0,0.1c0,0-0.1,0-0.1,0c-0.5,0-0.9-0.1-1.1-0.2
				c-0.1-0.1-0.2-0.1-0.3-0.2c-0.1-0.1-0.2-0.3-0.4-0.5c-0.1-0.2-0.2-0.3-0.3-0.6c-0.1-0.2-0.2-0.3-0.2-0.4c0-0.1-0.1-0.1-0.2-0.1
				c-0.1,0-0.2,0-0.3-0.1l-0.3,0v0.9c0,0.4,0.1,0.7,0.2,0.8c0.1,0.1,0.4,0.2,0.7,0.2v0.1c-0.3,0-0.6,0-0.7,0c-0.2,0-0.3,0-0.4,0
				c-0.1,0-0.3,0-0.4,0C55.1,15.5,54.9,15.5,54.6,15.5z"/>
			<path id="XMLID_257_" fill-rule="evenodd" clip-rule="evenodd" fill="#FFFFFF" d="M59.3,15.5v-0.1c0.3,0,0.5-0.1,0.6-0.2
				c0.1-0.1,0.2-0.3,0.2-0.6v-2.3c0-0.3-0.1-0.6-0.2-0.7c-0.1-0.1-0.3-0.2-0.6-0.2v-0.1c0.2,0,0.4,0,0.6,0c0.2,0,0.5,0,1,0
				c0.5,0,0.9,0,1.1,0c0.2,0,0.4,0,0.6,0c0,0.1,0,0.3,0,0.4c0,0.2,0,0.3,0,0.5h-0.1c0-0.3-0.1-0.5-0.3-0.6c-0.1-0.1-0.4-0.2-0.8-0.2
				h-0.8v1.7h0.6c0.3,0,0.6,0,0.7-0.1c0.1-0.1,0.2-0.2,0.2-0.5h0.1c0,0.1,0,0.3,0,0.5c0,0.2,0,0.4,0,0.6V14h-0.1
				c0-0.2-0.1-0.4-0.2-0.4c-0.1-0.1-0.4-0.1-0.7-0.1h-0.6v1.1c0,0.3,0.1,0.5,0.2,0.7c0.1,0.1,0.4,0.2,0.8,0.2c0.4,0,0.6-0.1,0.8-0.3
				c0.2-0.2,0.3-0.4,0.4-0.8l0.1,0c0,0.2,0,0.4-0.1,0.7c0,0.2-0.1,0.4-0.2,0.6c-0.3,0-0.6,0-0.9,0c-0.3,0-0.7,0-1.1,0
				c-0.4,0-0.7,0-0.9,0C59.6,15.5,59.4,15.5,59.3,15.5z"/>
			<path id="XMLID_256_" fill-rule="evenodd" clip-rule="evenodd" fill="#FFFFFF" d="M63.3,15.5v-0.1c0.3,0,0.5-0.1,0.6-0.2
				c0.1-0.1,0.2-0.4,0.2-0.8v-2.1c0-0.4-0.1-0.6-0.2-0.7c-0.1-0.1-0.3-0.2-0.6-0.2v-0.1c0.1,0,0.3,0,0.4,0c0.1,0,0.4,0,0.7,0
				c0.3,0,0.5,0,0.7,0c0.1,0,0.3,0,0.4,0v0.1c-0.3,0-0.5,0.1-0.6,0.2c-0.1,0.1-0.2,0.4-0.2,0.7v2.1c0,0.3,0,0.5,0,0.6
				c0,0.1,0,0.2,0.1,0.2c0,0,0.1,0.1,0.2,0.1c0.1,0,0.3,0,0.5,0c0.3,0,0.5,0,0.6,0c0.1,0,0.2-0.1,0.3-0.1c0.1-0.1,0.2-0.2,0.3-0.3
				c0.1-0.1,0.2-0.3,0.3-0.5l0.1,0l-0.3,1.2c-0.4,0-0.7,0-1,0c-0.3,0-0.6,0-0.8,0c-0.2,0-0.4,0-0.8,0C63.8,15.5,63.5,15.5,63.3,15.5
				z"/>
			<path id="XMLID_253_" fill-rule="evenodd" clip-rule="evenodd" fill="#FFFFFF" d="M68.1,13.3c0,0.6,0.2,1.1,0.5,1.5
				c0.3,0.4,0.7,0.6,1.2,0.6c0.5,0,0.8-0.2,1.1-0.5c0.3-0.4,0.4-0.8,0.4-1.4c0-0.3,0-0.5-0.1-0.7c-0.1-0.2-0.2-0.4-0.3-0.6
				c-0.2-0.2-0.3-0.4-0.5-0.5c-0.2-0.1-0.4-0.2-0.7-0.2c-0.5,0-0.8,0.2-1.1,0.5C68.3,12.2,68.1,12.7,68.1,13.3z M67.4,13.4
				c0-0.7,0.2-1.2,0.6-1.6c0.4-0.4,1-0.6,1.7-0.6c0.7,0,1.2,0.2,1.6,0.6c0.4,0.4,0.6,0.9,0.6,1.6c0,0.6-0.2,1.2-0.6,1.6
				c-0.4,0.4-1,0.6-1.7,0.6c-0.7,0-1.2-0.2-1.6-0.6C67.6,14.6,67.4,14,67.4,13.4z"/>
			<path id="XMLID_252_" fill-rule="evenodd" clip-rule="evenodd" fill="#FFFFFF" d="M72.5,14.2l0.1,0c0.1,0.4,0.3,0.7,0.5,0.9
				c0.2,0.2,0.5,0.3,0.8,0.3c0.2,0,0.4-0.1,0.6-0.2c0.2-0.1,0.2-0.3,0.2-0.5c0-0.2-0.1-0.3-0.2-0.5c-0.1-0.2-0.3-0.3-0.5-0.4
				l-0.5-0.3c-0.3-0.2-0.5-0.3-0.6-0.5c-0.1-0.2-0.2-0.4-0.2-0.6c0-0.3,0.1-0.6,0.4-0.8c0.3-0.2,0.6-0.3,1-0.3c0.2,0,0.3,0,0.5,0.1
				c0.2,0,0.3,0.1,0.5,0.2c0,0.1,0,0.3,0,0.4c0,0.1,0,0.3,0,0.5H75c0-0.3-0.1-0.6-0.3-0.8c-0.1-0.2-0.3-0.3-0.6-0.3
				c-0.2,0-0.4,0.1-0.5,0.2c-0.1,0.1-0.2,0.3-0.2,0.5c0,0.1,0,0.3,0.1,0.4c0.1,0.1,0.2,0.3,0.4,0.4l0.7,0.4c0.2,0.1,0.4,0.3,0.5,0.5
				c0.1,0.2,0.2,0.4,0.2,0.6c0,0.3-0.1,0.6-0.4,0.9c-0.3,0.2-0.6,0.4-1.1,0.4c-0.2,0-0.4,0-0.6-0.1c-0.2-0.1-0.4-0.1-0.5-0.2
				c0-0.2-0.1-0.3-0.1-0.5C72.5,14.6,72.5,14.4,72.5,14.2z"/>
		</g>
		<g id="XMLID_227_">
			<path id="XMLID_250_" fill-rule="evenodd" clip-rule="evenodd" fill="#FFFFFF" d="M19.6,6.3V4.5c0-0.3,0-0.5,0-0.6
				c0-0.1-0.1-0.2-0.1-0.2c-0.1-0.1-0.2-0.1-0.3-0.2c-0.1,0-0.2-0.1-0.4-0.1V3.3c0.2,0,0.3,0,0.5,0c0.2,0,0.4,0,0.8,0
				c0.4,0,0.6,0,0.8,0c0.2,0,0.3,0,0.5,0l0,0.1c-0.4,0-0.7,0.1-0.8,0.2c-0.1,0.1-0.2,0.4-0.2,0.9v1.8c0,0.3,0,0.6,0.1,0.8
				c0.1,0.2,0.1,0.3,0.3,0.5c0.1,0.2,0.3,0.3,0.5,0.3C21.4,8,21.6,8,21.9,8c0.3,0,0.6-0.1,0.8-0.2c0.2-0.1,0.4-0.3,0.5-0.6
				c0.1-0.1,0.1-0.3,0.1-0.6c0-0.3,0-0.7,0-1.2c0-0.6,0-0.9,0-1.2c0-0.2-0.1-0.4-0.1-0.5c-0.1-0.1-0.2-0.2-0.3-0.3
				c-0.1-0.1-0.3-0.1-0.6-0.1V3.3c0.1,0,0.3,0,0.4,0c0.1,0,0.4,0,0.7,0c0.3,0,0.5,0,0.7,0c0.1,0,0.3,0,0.4,0v0.1h0
				c-0.3,0-0.5,0.1-0.6,0.3c-0.1,0.2-0.2,0.8-0.2,1.6c0,0.1,0,0.2,0,0.3c0,0.8-0.1,1.4-0.2,1.7c-0.1,0.3-0.4,0.6-0.7,0.8
				c-0.3,0.2-0.7,0.3-1.2,0.3c-0.4,0-0.7-0.1-1-0.2c-0.3-0.1-0.5-0.3-0.7-0.5c-0.1-0.1-0.2-0.3-0.2-0.5C19.6,7.1,19.6,6.8,19.6,6.3z
				"/>
			<path id="XMLID_249_" fill-rule="evenodd" clip-rule="evenodd" fill="#FFFFFF" d="M24.6,8.3l0-0.1c0.3,0,0.5-0.1,0.6-0.3
				c0.1-0.2,0.2-0.6,0.2-1.2V5.5c0-0.1,0-0.1,0-0.2c0-0.1,0-0.2,0-0.2c0-0.2,0-0.3-0.1-0.4c0-0.1-0.1-0.2-0.2-0.3
				c-0.1-0.1-0.2-0.1-0.3-0.2c-0.1,0-0.2-0.1-0.4-0.1V4c0.1,0,0.2,0,0.3,0c0.1,0,0.2,0,0.3,0c0.1,0,0.1,0,0.3,0c0.1,0,0.2,0,0.2,0
				l3,3.2V5.9c0-0.5,0-0.9,0-1.1c0-0.2-0.1-0.3-0.2-0.4c-0.1-0.1-0.1-0.1-0.3-0.2c-0.1,0-0.3-0.1-0.4-0.1V4c0.1,0,0.2,0,0.3,0
				c0.1,0,0.3,0,0.5,0c0.2,0,0.4,0,0.5,0c0.1,0,0.2,0,0.3,0v0.1h0c-0.2,0-0.4,0.1-0.5,0.3c-0.1,0.2-0.1,0.6-0.1,1.2V7
				c0,0.3,0,0.6,0,0.8c0,0.2,0,0.4,0,0.6h0c-0.1-0.1-0.3-0.3-0.4-0.5c-0.1-0.2-0.2-0.3-0.2-0.3L25.6,5v1.2c0,0.6,0,1,0,1.2
				c0,0.2,0.1,0.4,0.1,0.4C25.8,7.9,25.9,8,26,8c0.1,0.1,0.3,0.1,0.5,0.1v0.1h0c-0.4,0-0.7,0-0.9,0c-0.1,0-0.2,0-0.4,0
				C25,8.3,24.8,8.3,24.6,8.3z"/>
			<path id="XMLID_248_" fill-rule="evenodd" clip-rule="evenodd" fill="#FFFFFF" d="M29.7,8.3V8.2c0.3,0,0.5-0.1,0.6-0.2
				c0.1-0.1,0.2-0.4,0.2-0.7V5.1c0-0.4-0.1-0.6-0.2-0.7c-0.1-0.1-0.3-0.2-0.6-0.2V4c0.1,0,0.3,0,0.6,0c0.2,0,0.4,0,0.5,0
				c0.1,0,0.3,0,0.5,0c0.2,0,0.4,0,0.5,0v0.1c-0.3,0-0.5,0.1-0.6,0.2c-0.1,0.1-0.2,0.4-0.2,0.7v2.2c0,0.4,0.1,0.6,0.2,0.7
				c0.1,0.1,0.3,0.2,0.6,0.2l0,0.1c-0.3,0-0.5,0-0.7,0c-0.1,0-0.3,0-0.4,0c-0.1,0-0.3,0-0.4,0C30.2,8.3,30,8.3,29.7,8.3z"/>
			<path id="XMLID_247_" fill-rule="evenodd" clip-rule="evenodd" fill="#FFFFFF" d="M34.3,8.5L32.8,5c-0.1-0.3-0.3-0.6-0.4-0.7
				c-0.1-0.1-0.3-0.2-0.5-0.2V4c0.1,0,0.2,0,0.4,0c0.1,0,0.3,0,0.6,0c0.3,0,0.5,0,0.6,0c0.1,0,0.3,0,0.4,0v0.1c-0.2,0-0.4,0-0.5,0.1
				c-0.1,0.1-0.2,0.1-0.2,0.3c0,0.1,0,0.2,0.1,0.4c0.1,0.2,0.1,0.4,0.3,0.7l0.8,2l0.8-2c0.1-0.3,0.2-0.5,0.2-0.6
				c0.1-0.2,0.1-0.3,0.1-0.4c0-0.1-0.1-0.2-0.2-0.3c-0.1-0.1-0.3-0.1-0.5-0.1V4c0.1,0,0.2,0,0.4,0c0.1,0,0.3,0,0.6,0
				c0.2,0,0.4,0,0.5,0c0.1,0,0.2,0,0.3,0v0.1h0c-0.2,0-0.4,0.1-0.5,0.3C36,4.6,35.8,5,35.5,5.5l-0.8,1.9c0,0-0.1,0.2-0.2,0.5
				C34.5,8.1,34.4,8.3,34.3,8.5L34.3,8.5z"/>
			<path id="XMLID_246_" fill-rule="evenodd" clip-rule="evenodd" fill="#FFFFFF" d="M36.8,8.3V8.2c0.3,0,0.5-0.1,0.6-0.2
				c0.1-0.1,0.2-0.3,0.2-0.6V5c0-0.3-0.1-0.6-0.2-0.7c-0.1-0.1-0.3-0.2-0.6-0.2V4c0.2,0,0.4,0,0.6,0c0.2,0,0.5,0,1,0
				c0.5,0,0.9,0,1.1,0c0.2,0,0.4,0,0.6,0c0,0.1,0,0.3,0,0.4c0,0.2,0,0.3,0,0.5H40c0-0.3-0.1-0.5-0.3-0.6c-0.1-0.1-0.4-0.2-0.8-0.2
				h-0.8v1.7h0.6c0.3,0,0.6,0,0.7-0.1c0.1-0.1,0.2-0.2,0.2-0.5h0.1c0,0.1,0,0.3,0,0.5c0,0.2,0,0.4,0,0.6v0.4h-0.1
				c0-0.2-0.1-0.4-0.2-0.4c-0.1-0.1-0.4-0.1-0.7-0.1h-0.6v1.1c0,0.3,0.1,0.5,0.2,0.7c0.1,0.1,0.4,0.2,0.8,0.2c0.4,0,0.6-0.1,0.8-0.3
				c0.2-0.2,0.3-0.4,0.4-0.8l0.1,0c0,0.2,0,0.4-0.1,0.7c0,0.2-0.1,0.4-0.2,0.6c-0.3,0-0.6,0-0.9,0c-0.3,0-0.7,0-1.1,0
				c-0.4,0-0.7,0-0.9,0C37.1,8.3,36.9,8.3,36.8,8.3z"/>
			<path id="XMLID_243_" fill-rule="evenodd" clip-rule="evenodd" fill="#FFFFFF" d="M42.2,6.1c0.4,0,0.7-0.1,1-0.3
				c0.2-0.2,0.3-0.4,0.3-0.7c0-0.3-0.1-0.5-0.3-0.7c-0.2-0.2-0.5-0.3-1-0.3V6.1z M40.9,8.3l0-0.1c0.3,0,0.5-0.1,0.6-0.2
				c0.1-0.1,0.2-0.4,0.2-0.8v-2c0-0.3,0-0.4,0-0.5c0-0.1-0.1-0.2-0.1-0.2c0,0-0.1-0.1-0.2-0.1c-0.1,0-0.2-0.1-0.3-0.1V4
				c0.5,0,0.9,0,1.4,0c0.1,0,0.2,0,0.2,0c0.5,0,0.9,0.1,1.2,0.3c0.3,0.2,0.4,0.4,0.4,0.8c0,0.2-0.1,0.4-0.2,0.6
				c-0.1,0.2-0.3,0.3-0.6,0.4c0.4,0.7,0.7,1.2,1.1,1.6c0.3,0.3,0.7,0.5,1.1,0.6l0,0.1c0,0-0.1,0-0.1,0c-0.5,0-0.9-0.1-1.1-0.2
				C44.2,8.1,44,8,43.9,7.9c-0.1-0.1-0.2-0.3-0.4-0.5c-0.1-0.2-0.2-0.3-0.3-0.6C43.1,6.6,43,6.5,43,6.5c0-0.1-0.1-0.1-0.2-0.1
				c-0.1,0-0.2,0-0.3-0.1l-0.3,0v0.9c0,0.4,0.1,0.7,0.2,0.8c0.1,0.1,0.4,0.2,0.7,0.2v0.1c-0.3,0-0.6,0-0.7,0c-0.2,0-0.3,0-0.4,0
				c-0.1,0-0.3,0-0.4,0C41.4,8.3,41.1,8.3,40.9,8.3z"/>
			<path id="XMLID_242_" fill-rule="evenodd" clip-rule="evenodd" fill="#FFFFFF" d="M45.7,7l0.1,0c0.1,0.4,0.3,0.7,0.5,0.9
				c0.2,0.2,0.5,0.3,0.8,0.3c0.2,0,0.4-0.1,0.6-0.2c0.2-0.1,0.2-0.3,0.2-0.5c0-0.2-0.1-0.3-0.2-0.5c-0.1-0.2-0.3-0.3-0.5-0.4
				l-0.5-0.3c-0.3-0.2-0.5-0.3-0.6-0.5C46.1,5.5,46,5.3,46,5.1c0-0.3,0.1-0.6,0.4-0.8c0.3-0.2,0.6-0.3,1-0.3c0.2,0,0.3,0,0.5,0.1
				c0.2,0,0.3,0.1,0.5,0.2c0,0.1,0,0.3,0,0.4c0,0.1,0,0.3,0,0.5h-0.1c0-0.3-0.1-0.6-0.3-0.8c-0.1-0.2-0.3-0.3-0.6-0.3
				c-0.2,0-0.4,0.1-0.5,0.2c-0.1,0.1-0.2,0.3-0.2,0.5c0,0.1,0,0.3,0.1,0.4c0.1,0.1,0.2,0.3,0.4,0.4l0.7,0.4c0.2,0.1,0.4,0.3,0.5,0.5
				c0.1,0.2,0.2,0.4,0.2,0.6c0,0.3-0.1,0.6-0.4,0.9c-0.3,0.2-0.6,0.4-1.1,0.4c-0.2,0-0.4,0-0.6-0.1C46.2,8.2,46,8.1,45.8,8
				c0-0.2-0.1-0.3-0.1-0.5C45.7,7.3,45.7,7.2,45.7,7z"/>
			<path id="XMLID_241_" fill-rule="evenodd" clip-rule="evenodd" fill="#FFFFFF" d="M48.8,8.3V8.2c0.3,0,0.5-0.1,0.6-0.2
				c0.1-0.1,0.2-0.4,0.2-0.7V5.1c0-0.4-0.1-0.6-0.2-0.7c-0.1-0.1-0.3-0.2-0.6-0.2V4c0.1,0,0.3,0,0.6,0c0.2,0,0.4,0,0.5,0
				c0.1,0,0.3,0,0.5,0c0.2,0,0.4,0,0.5,0v0.1c-0.3,0-0.5,0.1-0.6,0.2c-0.1,0.1-0.2,0.4-0.2,0.7v2.2c0,0.4,0.1,0.6,0.2,0.7
				c0.1,0.1,0.3,0.2,0.6,0.2l0,0.1c-0.3,0-0.5,0-0.7,0c-0.1,0-0.3,0-0.4,0c-0.1,0-0.3,0-0.4,0C49.4,8.3,49.1,8.3,48.8,8.3z"/>
			<path id="XMLID_238_" fill-rule="evenodd" clip-rule="evenodd" fill="#FFFFFF" d="M52.6,7.1c0,0.4,0.1,0.7,0.2,0.8
				c0.1,0.1,0.4,0.2,0.7,0.2c0.5,0,0.9-0.2,1.2-0.5c0.3-0.3,0.5-0.8,0.5-1.3c0-0.7-0.2-1.2-0.7-1.6c-0.4-0.4-1-0.6-1.8-0.6h-0.1V7.1
				z M51.2,8.3V8.2c0.3,0,0.5-0.1,0.6-0.2C51.9,7.8,52,7.6,52,7.3V4.9c0-0.3-0.1-0.5-0.2-0.6c-0.1-0.1-0.3-0.2-0.6-0.2V4
				c0.3,0,0.7,0,1.1,0C52.7,4,53,4,53,4c0.9,0,1.6,0.2,2.1,0.6c0.5,0.4,0.8,0.9,0.8,1.6c0,0.7-0.2,1.2-0.7,1.5
				c-0.5,0.4-1.1,0.6-2,0.6c-0.2,0-0.5,0-0.9,0C51.8,8.3,51.5,8.3,51.2,8.3z"/>
			<path id="XMLID_235_" fill-rule="evenodd" clip-rule="evenodd" fill="#FFFFFF" d="M57.4,6.2h1.2L58,4.6L57.4,6.2z M55.9,8.3V8.2
				c0.1,0,0.2-0.1,0.3-0.1c0.1,0,0.1-0.1,0.2-0.1c0.1-0.1,0.3-0.6,0.6-1.4c0.1-0.2,0.1-0.3,0.2-0.4l0.7-1.8l0-0.1
				C58,4.1,58.1,4,58.1,4c0.1-0.1,0.1-0.1,0.2-0.2l1.3,3.6C59.8,7.7,59.9,7.9,60,8c0.1,0.1,0.3,0.2,0.5,0.2l0,0.1
				c-0.2,0-0.4,0-0.5,0c-0.1,0-0.2,0-0.4,0c-0.1,0-0.2,0-0.3,0c-0.1,0-0.3,0-0.6,0l0-0.1c0.2,0,0.3,0,0.4-0.1
				c0.1-0.1,0.1-0.1,0.1-0.2c0,0,0-0.1,0-0.2c0-0.1,0-0.1-0.1-0.2l-0.3-0.9h-1.4l-0.1,0.3c-0.1,0.2-0.1,0.4-0.2,0.6
				C57,7.6,57,7.7,57,7.8C57,7.9,57,8,57.1,8.1c0.1,0.1,0.3,0.1,0.5,0.1v0.1c0,0,0,0,0,0c-0.4,0-0.7,0-0.9,0c-0.1,0-0.2,0-0.3,0
				C56.3,8.3,56.1,8.3,55.9,8.3z"/>
			<path id="XMLID_232_" fill-rule="evenodd" clip-rule="evenodd" fill="#FFFFFF" d="M61.8,7.1c0,0.4,0.1,0.7,0.2,0.8
				c0.1,0.1,0.4,0.2,0.7,0.2c0.5,0,0.9-0.2,1.2-0.5c0.3-0.3,0.5-0.8,0.5-1.3c0-0.7-0.2-1.2-0.7-1.6c-0.4-0.4-1-0.6-1.8-0.6h-0.1V7.1
				z M60.4,8.3V8.2c0.3,0,0.5-0.1,0.6-0.2c0.1-0.1,0.2-0.3,0.2-0.6V4.9c0-0.3-0.1-0.5-0.2-0.6c-0.1-0.1-0.3-0.2-0.6-0.2V4
				c0.3,0,0.7,0,1.1,0c0.4,0,0.6,0,0.7,0c0.9,0,1.6,0.2,2.1,0.6c0.5,0.4,0.8,0.9,0.8,1.6c0,0.7-0.2,1.2-0.7,1.5
				c-0.5,0.4-1.1,0.6-2,0.6c-0.2,0-0.5,0-0.9,0C61,8.3,60.7,8.3,60.4,8.3z"/>
			<path id="XMLID_229_" fill-rule="evenodd" clip-rule="evenodd" fill="#FFFFFF" d="M68.2,7.1c0,0.4,0.1,0.7,0.2,0.8
				c0.1,0.1,0.4,0.2,0.7,0.2c0.5,0,0.9-0.2,1.2-0.5c0.3-0.3,0.5-0.8,0.5-1.3c0-0.7-0.2-1.2-0.7-1.6c-0.4-0.4-1-0.6-1.8-0.6h-0.1V7.1
				z M66.8,8.3V8.2c0.3,0,0.5-0.1,0.6-0.2c0.1-0.1,0.2-0.3,0.2-0.6V4.9c0-0.3-0.1-0.5-0.2-0.6c-0.1-0.1-0.3-0.2-0.6-0.2V4
				c0.3,0,0.7,0,1.1,0c0.4,0,0.6,0,0.7,0c0.9,0,1.6,0.2,2.1,0.6c0.5,0.4,0.8,0.9,0.8,1.6c0,0.7-0.2,1.2-0.7,1.5
				c-0.5,0.4-1.1,0.6-2,0.6c-0.2,0-0.5,0-0.9,0C67.4,8.3,67.1,8.3,66.8,8.3z"/>
			<path id="XMLID_228_" fill-rule="evenodd" clip-rule="evenodd" fill="#FFFFFF" d="M71.4,8.3V8.2c0.3,0,0.5-0.1,0.6-0.2
				c0.1-0.1,0.2-0.3,0.2-0.6V5c0-0.3-0.1-0.6-0.2-0.7c-0.1-0.1-0.3-0.2-0.6-0.2V4c0.2,0,0.4,0,0.6,0c0.2,0,0.5,0,1,0
				c0.5,0,0.9,0,1.1,0c0.2,0,0.4,0,0.6,0c0,0.1,0,0.3,0,0.4c0,0.2,0,0.3,0,0.5h-0.1c0-0.3-0.1-0.5-0.3-0.6c-0.1-0.1-0.4-0.2-0.8-0.2
				h-0.8v1.7h0.6c0.3,0,0.6,0,0.7-0.1c0.1-0.1,0.2-0.2,0.2-0.5h0.1c0,0.1,0,0.3,0,0.5c0,0.2,0,0.4,0,0.6v0.4h-0.1
				c0-0.2-0.1-0.4-0.2-0.4c-0.1-0.1-0.4-0.1-0.7-0.1h-0.6v1.1c0,0.3,0.1,0.5,0.2,0.7c0.1,0.1,0.4,0.2,0.8,0.2c0.4,0,0.6-0.1,0.8-0.3
				C74.9,7.7,75,7.4,75.1,7l0.1,0c0,0.2,0,0.4-0.1,0.7c0,0.2-0.1,0.4-0.2,0.6c-0.3,0-0.6,0-0.9,0c-0.3,0-0.7,0-1.1,0
				c-0.4,0-0.7,0-0.9,0C71.8,8.3,71.6,8.3,71.4,8.3z"/>
		</g>
	</g>
</g>
</svg>
